<?xml version="1.0" standalone="no"?>
<!DOCTYPE svg PUBLIC "-//W3C//DTD SVG 20010904//EN"
 "http://www.w3.org/TR/2001/REC-SVG-20010904/DTD/svg10.dtd">
<svg version="1.0" xmlns="http://www.w3.org/2000/svg"
 width="3464.000000pt" height="3464.000000pt" viewBox="0 0 3464.000000 3464.000000"
 preserveAspectRatio="xMidYMid meet">
<metadata>
Created by potrace 1.11, written by Peter Selinger 2001-2013
</metadata>
<g transform="translate(0.000000,3464.000000) scale(0.100000,-0.100000)"
fill="#000000" stroke="none">
<path d="M0 17320 l0 -17320 17320 0 17320 0 0 17320 0 17320 -17320 0 -17320
0 0 -17320z m24255 14835 c61 -3 225 -9 365 -15 358 -15 584 -29 660 -41 36
-5 173 -14 305 -20 132 -5 296 -14 365 -20 169 -13 989 -13 1115 0 55 6 159
15 230 20 72 5 162 17 200 25 71 16 185 32 308 43 88 8 176 -11 253 -54 70
-38 180 -146 201 -195 8 -18 18 -35 22 -38 16 -10 61 -136 76 -215 8 -44 15
-114 15 -156 0 -67 4 -86 34 -145 18 -38 43 -101 56 -140 24 -74 24 -122 1
-269 -6 -33 -17 -168 -26 -300 -9 -132 -20 -262 -26 -290 -15 -70 -23 -1459
-10 -1700 16 -306 40 -677 57 -860 8 -93 19 -242 24 -330 5 -88 14 -184 19
-213 6 -28 15 -112 22 -185 6 -72 18 -184 26 -247 8 -63 20 -178 28 -255 7
-77 17 -167 23 -200 6 -33 14 -94 17 -135 10 -116 24 -231 35 -275 6 -22 14
-94 20 -160 5 -66 14 -142 19 -170 15 -76 19 -112 26 -214 4 -52 11 -105 16
-118 5 -13 16 -92 24 -176 9 -84 22 -188 30 -232 7 -44 17 -118 20 -165 4 -47
13 -118 21 -159 7 -41 19 -133 25 -205 6 -72 17 -162 25 -199 8 -38 14 -94 14
-125 1 -54 6 -101 29 -257 5 -38 15 -135 21 -215 6 -80 17 -188 26 -241 8 -52
19 -162 23 -245 5 -82 16 -216 25 -299 8 -82 20 -220 26 -305 6 -85 12 -175
14 -200 13 -140 26 -320 30 -430 3 -69 10 -174 16 -235 6 -60 13 -184 16 -275
5 -161 14 -349 33 -715 40 -754 40 -3088 1 -3795 -18 -319 -29 -526 -34 -670
-3 -80 -10 -188 -15 -240 -6 -52 -13 -142 -16 -200 -6 -123 -25 -382 -31 -425
-2 -16 -9 -88 -14 -160 -6 -71 -18 -191 -26 -265 -9 -74 -22 -207 -29 -295 -8
-88 -18 -182 -24 -210 -5 -27 -15 -111 -21 -185 -6 -74 -17 -166 -24 -205 -8
-38 -17 -113 -21 -165 -4 -52 -16 -135 -26 -185 -10 -49 -19 -110 -19 -135 -1
-25 -8 -81 -16 -125 -8 -44 -21 -131 -29 -193 -8 -62 -18 -128 -24 -145 -5
-18 -15 -77 -21 -132 -6 -55 -15 -111 -20 -125 -6 -14 -19 -83 -30 -155 -11
-71 -24 -152 -30 -180 -27 -139 -43 -228 -56 -305 -7 -47 -20 -110 -28 -140
-8 -30 -18 -77 -21 -105 -4 -27 -16 -83 -26 -124 -10 -41 -19 -84 -19 -96 0
-11 -7 -45 -15 -75 -8 -30 -22 -89 -29 -131 -8 -42 -21 -100 -29 -130 -9 -30
-18 -76 -22 -104 -4 -27 -11 -58 -17 -68 -5 -10 -16 -55 -23 -100 -8 -45 -19
-93 -25 -107 -6 -14 -17 -59 -25 -100 -8 -41 -22 -104 -31 -140 -9 -36 -25
-99 -35 -140 -10 -41 -25 -104 -34 -140 -9 -36 -21 -87 -27 -115 -6 -27 -19
-79 -29 -115 -10 -36 -26 -92 -34 -125 -9 -33 -24 -91 -34 -130 -10 -38 -23
-83 -30 -98 -13 -33 -15 -94 -3 -101 7 -4 44 38 102 115 8 12 29 37 45 58 17
20 50 65 75 100 25 34 52 71 60 81 22 29 56 77 103 149 23 35 49 74 57 86 32
46 89 135 155 240 28 44 52 86 69 122 9 17 20 34 26 38 6 4 17 21 25 38 8 18
26 52 41 77 61 101 81 138 99 180 3 8 19 38 35 65 15 28 76 147 135 265 58
118 115 232 126 252 10 20 19 43 19 50 0 7 9 24 20 38 11 14 20 31 20 39 0 8
11 37 24 65 13 28 36 76 50 106 14 30 26 62 26 70 0 8 9 29 20 45 11 17 20 37
20 45 0 8 12 38 25 65 14 28 25 57 25 65 0 9 6 24 14 35 7 11 19 38 26 60 7
22 21 56 31 75 11 19 19 44 19 55 0 11 7 31 16 44 9 13 20 37 24 55 7 27 41
121 86 236 7 19 13 44 14 55 0 11 9 34 20 50 11 17 20 38 20 48 0 10 8 37 19
60 10 23 22 58 26 77 4 19 13 46 20 60 7 14 18 52 25 85 7 32 18 68 25 80 7
11 18 44 24 73 6 29 17 65 25 80 8 15 17 49 21 75 4 26 11 50 16 52 4 3 15 40
25 83 9 42 22 88 29 102 7 14 16 45 20 70 4 25 13 56 20 70 7 14 16 44 20 65
3 22 15 69 25 105 20 68 38 140 70 275 38 160 51 211 71 275 10 36 19 74 19
85 0 11 7 45 15 75 8 30 22 89 29 130 8 41 19 89 25 105 6 17 17 71 25 120 9
50 22 115 31 145 8 30 15 69 15 86 0 18 9 60 19 95 11 35 22 93 26 129 3 36
12 85 20 110 7 25 19 86 25 135 6 50 17 113 25 140 7 28 16 79 20 115 4 36 13
92 21 125 8 33 19 103 25 155 6 52 17 122 24 155 8 33 19 111 25 173 6 62 15
124 20 137 5 14 15 78 20 143 6 64 18 145 25 179 8 34 17 99 20 145 3 46 14
144 25 218 11 74 24 187 30 250 6 63 12 126 15 140 2 14 9 81 15 150 6 69 18
184 26 255 9 72 20 204 25 295 5 91 13 197 19 235 5 39 15 147 20 240 6 94 18
274 26 400 9 127 19 403 24 615 6 212 15 428 22 480 17 133 17 1919 0 1970 -8
23 -15 193 -21 495 -5 253 -16 566 -25 695 -8 129 -20 318 -26 420 -6 102 -16
199 -21 215 -5 17 -13 104 -19 195 -5 91 -13 189 -19 218 -6 30 -15 117 -21
195 -6 77 -18 166 -25 196 -8 31 -19 110 -26 176 -6 66 -15 127 -20 136 -4 8
-13 65 -19 125 -6 60 -17 129 -25 154 -7 25 -19 83 -25 129 -6 46 -16 94 -21
108 -5 13 -13 54 -19 91 -6 37 -19 101 -29 142 -11 41 -24 98 -30 125 -14 72
-39 170 -61 246 -11 36 -20 74 -20 85 -1 10 -8 37 -16 59 -9 22 -22 65 -29 95
-8 30 -21 75 -29 100 -28 82 -47 144 -61 198 -7 29 -18 58 -23 65 -5 7 -17 35
-25 62 -9 28 -30 88 -47 135 -18 47 -37 110 -45 140 -7 30 -17 73 -24 95 -18
65 -13 196 10 288 22 83 59 166 84 187 24 20 -4 57 -141 191 -372 363 -824
821 -840 851 -5 9 -38 46 -73 83 -77 82 -331 390 -331 402 0 5 -11 24 -25 43
-14 19 -25 42 -25 52 0 11 -10 40 -22 66 -19 40 -22 64 -23 167 0 99 4 132 23
190 28 85 67 168 101 215 57 78 186 184 239 196 15 3 44 12 65 20 53 20 117
17 190 -7 118 -40 133 -53 317 -274 68 -82 127 -152 130 -155 4 -3 36 -39 71
-80 36 -41 80 -93 99 -114 19 -22 314 -320 655 -662 341 -342 661 -666 710
-719 50 -54 97 -105 106 -114 37 -37 106 -150 128 -211 19 -51 25 -90 28 -185
4 -110 2 -126 -23 -200 -26 -77 -61 -148 -94 -188 -47 -59 -157 -158 -186
-167 -42 -14 -53 -47 -31 -98 9 -20 19 -55 23 -77 4 -22 13 -52 20 -66 7 -15
20 -55 28 -90 7 -35 18 -77 24 -94 14 -38 47 -173 97 -390 9 -38 23 -99 31
-135 9 -36 22 -103 29 -150 8 -47 18 -97 24 -112 5 -14 13 -55 16 -90 4 -34
13 -85 20 -113 8 -27 21 -99 29 -160 8 -60 20 -126 25 -145 5 -19 15 -78 20
-130 6 -52 15 -117 21 -145 6 -27 17 -108 25 -180 8 -71 19 -146 24 -165 6
-19 15 -92 20 -161 6 -70 17 -166 26 -215 8 -49 19 -156 25 -239 6 -82 14
-181 20 -220 5 -38 12 -117 15 -175 8 -129 21 -300 34 -440 5 -58 15 -229 21
-380 6 -151 16 -394 22 -540 12 -286 15 -1715 4 -1920 -3 -69 -13 -357 -22
-640 -9 -283 -20 -573 -25 -645 -4 -71 -13 -213 -19 -315 -6 -102 -17 -268
-26 -370 -8 -102 -19 -261 -24 -355 -6 -93 -16 -217 -24 -275 -9 -58 -20 -176
-26 -264 -7 -87 -16 -182 -21 -210 -5 -28 -14 -116 -19 -196 -6 -80 -15 -158
-20 -175 -8 -28 -15 -78 -40 -323 -6 -56 -15 -115 -20 -130 -5 -15 -14 -82
-20 -150 -6 -67 -15 -135 -20 -150 -5 -15 -14 -74 -20 -132 -6 -58 -17 -132
-25 -165 -7 -33 -19 -105 -25 -160 -6 -55 -17 -120 -25 -145 -7 -25 -16 -75
-19 -111 -4 -36 -13 -91 -21 -121 -8 -31 -19 -95 -25 -143 -6 -49 -15 -96 -21
-106 -5 -10 -14 -56 -20 -101 -5 -46 -16 -103 -24 -128 -8 -25 -20 -83 -25
-129 -6 -46 -15 -92 -20 -101 -5 -9 -14 -48 -20 -86 -9 -63 -18 -104 -66 -309
-9 -38 -22 -104 -29 -145 -8 -41 -20 -93 -28 -115 -8 -22 -18 -65 -22 -95 -4
-30 -13 -69 -20 -86 -7 -17 -16 -51 -19 -75 -4 -24 -16 -73 -26 -109 -23 -78
-46 -171 -65 -263 -8 -37 -19 -76 -25 -87 -5 -10 -15 -42 -21 -72 -6 -29 -19
-80 -29 -113 -10 -33 -23 -78 -28 -100 -5 -22 -15 -53 -20 -70 -12 -32 -53
-173 -70 -240 -10 -40 -33 -112 -53 -170 -6 -16 -19 -59 -29 -95 -21 -73 -43
-140 -70 -215 -21 -56 -43 -122 -70 -210 -34 -111 -52 -160 -71 -201 -10 -23
-19 -50 -19 -60 0 -11 -8 -35 -19 -54 -10 -19 -22 -51 -26 -70 -4 -19 -16 -49
-26 -66 -10 -17 -19 -40 -19 -50 0 -11 -12 -41 -25 -69 -14 -27 -25 -57 -25
-65 0 -8 -9 -32 -20 -53 -11 -20 -20 -43 -20 -49 0 -7 -12 -35 -25 -63 -14
-27 -25 -55 -25 -62 0 -7 -11 -33 -25 -59 -14 -26 -25 -53 -25 -61 0 -8 -7
-27 -15 -41 -20 -38 -75 -169 -75 -180 0 -5 -6 -15 -14 -21 -8 -7 -18 -27 -22
-44 -3 -18 -15 -48 -25 -67 -10 -19 -38 -78 -62 -130 -76 -161 -255 -520 -307
-615 -27 -49 -54 -100 -59 -112 -5 -12 -25 -47 -43 -78 -18 -31 -45 -77 -61
-103 -15 -26 -32 -59 -38 -75 -6 -15 -15 -27 -19 -27 -4 0 -15 -17 -24 -37 -9
-21 -27 -52 -39 -69 -27 -39 -77 -118 -97 -156 -18 -33 -38 -62 -66 -97 -12
-14 -24 -36 -28 -48 -4 -12 -27 -48 -51 -79 -25 -31 -47 -65 -50 -75 -4 -11
-10 -19 -14 -19 -4 0 -13 -11 -19 -24 -6 -14 -18 -33 -26 -43 -8 -10 -58 -76
-111 -148 -120 -164 -224 -301 -250 -329 -11 -11 -42 -48 -69 -81 -28 -33 -84
-98 -125 -144 -42 -47 -83 -93 -91 -102 -45 -53 -421 -425 -492 -487 -46 -40
-92 -81 -103 -91 -24 -22 -205 -167 -288 -231 -56 -43 -105 -78 -247 -175 -36
-25 -87 -60 -115 -80 -27 -19 -55 -35 -61 -35 -6 0 -17 -7 -25 -16 -7 -9 -27
-23 -45 -32 -134 -69 -187 -107 -232 -163 -198 -251 -475 -501 -711 -644 -9
-5 -32 -19 -51 -31 -54 -34 -290 -152 -330 -165 -19 -7 -44 -18 -55 -25 -11
-8 -26 -14 -35 -14 -9 0 -33 -9 -55 -20 -21 -11 -62 -24 -92 -29 -29 -6 -65
-17 -80 -24 -16 -8 -48 -17 -73 -21 -25 -4 -65 -13 -90 -21 -25 -8 -88 -19
-140 -25 -52 -5 -131 -15 -175 -22 -122 -18 -379 -16 -535 5 -236 31 -300 43
-450 87 -36 10 -81 22 -100 26 -19 4 -44 12 -55 19 -11 8 -40 19 -65 25 -24 7
-53 18 -64 26 -11 8 -27 14 -35 14 -14 0 -302 142 -373 183 -67 40 -173 108
-213 138 -22 17 -52 38 -67 47 -14 10 -44 32 -65 50 -21 17 -81 66 -133 108
-52 43 -189 172 -305 288 -245 246 -283 287 -354 379 -29 38 -60 77 -69 87
-19 21 -24 27 -120 155 -86 115 -112 153 -218 314 -16 24 -37 56 -46 70 -10
14 -25 40 -34 56 -9 17 -23 38 -31 47 -8 9 -22 30 -31 47 -10 17 -43 75 -74
130 -32 54 -58 104 -58 109 0 6 -6 17 -13 24 -11 12 -193 376 -236 473 -10 22
-27 60 -39 85 -50 110 -72 163 -72 173 0 6 -9 29 -19 51 -20 41 -36 83 -72
186 -11 30 -26 69 -34 87 -8 17 -15 39 -15 50 0 10 -9 37 -20 61 -10 23 -22
59 -26 80 -4 20 -15 53 -25 72 -11 19 -19 44 -19 56 0 12 -9 46 -19 76 -11 29
-26 80 -34 113 -21 84 -35 136 -63 241 -13 49 -24 100 -24 112 0 12 -9 55 -19
95 -24 88 -68 329 -76 417 -3 36 -11 83 -17 105 -5 22 -16 119 -24 215 -8 96
-19 218 -25 270 -15 128 -15 1078 0 1225 6 61 18 205 26 320 8 116 19 239 24
275 6 36 15 121 21 190 6 69 17 159 25 200 8 41 19 122 24 180 5 58 16 134 24
170 8 36 17 99 21 140 3 41 15 111 26 155 11 44 20 94 20 112 0 18 9 70 19
115 11 46 27 119 36 163 53 260 76 362 105 450 11 33 20 71 20 85 1 14 8 43
16 65 9 22 22 63 30 90 15 58 50 164 69 215 7 19 20 55 28 80 8 25 22 65 31
90 16 43 24 64 83 205 41 97 216 445 224 445 4 0 11 10 14 23 4 12 17 38 29
57 13 19 36 55 52 80 31 49 73 105 174 233 116 147 348 364 461 432 18 11 49
30 69 43 19 12 49 29 67 37 17 8 34 19 37 24 4 5 19 12 35 16 16 3 35 13 42
21 6 7 32 20 58 28 25 8 60 21 76 30 17 9 37 16 46 16 9 0 40 8 70 19 31 10
80 22 110 26 30 4 83 13 119 21 77 16 412 18 480 3 25 -6 77 -15 115 -20 67
-9 139 -29 250 -70 28 -10 64 -21 80 -25 28 -7 60 -21 130 -57 17 -9 48 -25
70 -36 22 -12 58 -32 80 -46 22 -13 51 -29 65 -35 94 -43 184 -105 211 -147 9
-14 45 -51 80 -84 87 -80 82 -75 152 -155 125 -144 125 -144 222 -280 61 -85
146 -187 258 -309 56 -60 135 -146 175 -190 166 -181 252 -273 342 -366 388
-400 580 -597 897 -918 462 -468 994 -1017 1070 -1103 80 -92 116 -164 138
-278 19 -96 36 -133 54 -115 5 6 17 73 26 150 9 77 20 158 26 180 5 22 16 99
24 170 8 72 19 153 25 180 5 28 14 104 20 170 5 66 14 143 19 170 11 54 15 88
31 290 6 72 15 144 20 160 5 17 14 107 20 200 6 94 16 202 21 240 5 39 14 162
19 275 5 113 14 228 20 255 12 60 25 311 40 755 6 179 16 354 22 390 14 87 22
2675 9 3075 -9 285 -26 706 -51 1225 -6 129 -15 269 -21 310 -5 41 -14 170
-19 285 -5 116 -16 282 -24 370 -8 88 -17 218 -21 289 -7 119 -10 132 -32 154
l-24 24 -472 -6 c-260 -4 -512 -11 -562 -16 -49 -5 -317 -17 -595 -26 -278 -9
-554 -20 -615 -25 -60 -5 -220 -13 -355 -19 -134 -5 -267 -14 -295 -20 -27 -5
-156 -16 -285 -25 -129 -8 -291 -22 -360 -30 -69 -8 -190 -19 -270 -24 -80 -6
-170 -15 -200 -20 -30 -6 -120 -15 -200 -21 -80 -6 -176 -17 -215 -25 -38 -7
-117 -16 -175 -20 -58 -3 -152 -14 -210 -25 -58 -10 -146 -21 -196 -24 -51 -4
-116 -13 -145 -20 -30 -8 -108 -19 -174 -25 -66 -6 -136 -15 -155 -20 -19 -6
-82 -15 -140 -21 -58 -6 -132 -17 -165 -25 -33 -8 -105 -19 -159 -25 -55 -7
-110 -16 -124 -21 -13 -5 -70 -14 -126 -20 -55 -6 -121 -16 -146 -24 -25 -7
-85 -19 -135 -25 -49 -6 -112 -17 -140 -24 -27 -8 -79 -17 -115 -20 -36 -4
-85 -13 -110 -21 -25 -8 -83 -19 -128 -25 -46 -6 -95 -15 -108 -20 -13 -5 -66
-16 -118 -25 -52 -8 -105 -19 -119 -24 -13 -5 -60 -15 -103 -21 -43 -6 -101
-17 -129 -25 -27 -7 -86 -21 -130 -29 -44 -9 -98 -20 -120 -25 -22 -6 -94 -22
-160 -36 -66 -15 -138 -31 -160 -36 -22 -6 -62 -15 -90 -21 -27 -6 -75 -17
-105 -25 -30 -8 -75 -19 -100 -24 -25 -6 -76 -19 -115 -29 -132 -34 -200 -51
-280 -70 -140 -33 -208 -52 -268 -71 -31 -10 -66 -19 -77 -19 -10 0 -43 -9
-72 -19 -29 -11 -79 -25 -110 -31 -32 -6 -70 -17 -85 -25 -16 -7 -48 -16 -73
-20 -25 -4 -56 -13 -70 -20 -14 -7 -43 -15 -65 -19 -22 -4 -67 -16 -100 -26
-33 -11 -100 -31 -150 -46 -49 -14 -112 -34 -140 -45 -27 -10 -68 -21 -90 -25
-22 -4 -52 -13 -66 -20 -14 -7 -52 -20 -85 -28 -58 -14 -108 -30 -209 -66 -96
-34 -150 -51 -201 -66 -29 -8 -65 -21 -80 -29 -16 -8 -36 -15 -44 -15 -8 -1
-33 -8 -55 -16 -22 -9 -67 -24 -100 -34 -33 -10 -91 -30 -130 -45 -38 -15 -95
-34 -124 -42 -30 -8 -64 -21 -75 -28 -12 -7 -37 -16 -56 -20 -19 -4 -51 -16
-70 -26 -19 -11 -42 -19 -50 -19 -9 0 -33 -9 -54 -19 -21 -11 -52 -23 -69 -26
-18 -4 -41 -13 -52 -20 -11 -6 -42 -19 -70 -28 -50 -16 -137 -48 -230 -85 -27
-11 -75 -30 -105 -41 -30 -12 -68 -28 -85 -35 -16 -8 -50 -22 -75 -31 -25 -9
-65 -25 -90 -35 -25 -10 -65 -26 -90 -35 -25 -9 -63 -25 -85 -35 -22 -10 -69
-30 -105 -45 -36 -14 -83 -34 -105 -45 -22 -10 -69 -30 -105 -45 -36 -14 -88
-37 -115 -51 -28 -13 -54 -24 -58 -24 -4 0 -47 -18 -95 -41 -48 -22 -105 -49
-127 -58 -22 -10 -65 -30 -95 -44 -30 -14 -86 -40 -125 -57 -143 -65 -160 -73
-175 -82 -13 -8 -48 -23 -90 -41 -8 -4 -22 -11 -30 -16 -13 -9 -120 -58 -160
-75 -8 -3 -22 -10 -30 -16 -8 -5 -31 -16 -50 -25 -19 -8 -42 -19 -50 -25 -8
-5 -49 -25 -90 -45 -41 -20 -82 -40 -90 -44 -8 -5 -44 -24 -80 -41 -36 -18
-72 -38 -80 -45 -8 -7 -26 -16 -40 -20 -14 -4 -36 -16 -49 -26 -13 -11 -31
-19 -41 -19 -10 0 -28 -8 -41 -19 -31 -24 -139 -81 -153 -81 -7 0 -18 -6 -24
-12 -13 -13 -138 -84 -198 -112 -17 -8 -91 -49 -165 -92 -74 -42 -150 -85
-169 -96 -19 -11 -51 -29 -71 -41 -20 -12 -75 -44 -123 -72 -48 -27 -104 -60
-124 -72 -20 -12 -53 -32 -72 -43 -34 -20 -75 -45 -150 -90 -19 -11 -55 -34
-80 -50 -25 -16 -52 -33 -60 -36 -8 -4 -46 -27 -85 -52 -38 -25 -86 -55 -105
-67 -19 -12 -53 -33 -75 -47 -22 -13 -52 -32 -67 -41 -44 -27 -177 -67 -222
-67 -57 0 -184 43 -241 81 -55 37 -121 103 -141 142 -17 31 -50 36 -59 8 -3
-10 -1 -49 4 -87 5 -38 13 -157 16 -264 4 -107 10 -215 15 -240 5 -25 14 -151
20 -280 6 -129 18 -365 26 -525 9 -159 20 -562 25 -895 5 -333 14 -648 20
-700 22 -194 -10 -2302 -45 -2900 -8 -151 -20 -365 -26 -475 -6 -110 -15 -222
-20 -250 -6 -27 -15 -142 -20 -255 -6 -113 -14 -239 -19 -280 -5 -41 -15 -147
-21 -235 -6 -88 -17 -200 -25 -250 -8 -49 -19 -153 -25 -230 -6 -77 -15 -165
-20 -195 -6 -30 -15 -111 -20 -180 -6 -69 -14 -143 -20 -165 -15 -64 -19 -93
-30 -213 -6 -62 -17 -141 -25 -175 -7 -34 -19 -113 -25 -175 -6 -62 -15 -123
-20 -137 -5 -13 -12 -59 -16 -102 -3 -43 -12 -106 -20 -141 -7 -34 -21 -115
-29 -179 -9 -65 -20 -136 -26 -158 -6 -22 -17 -80 -24 -130 -7 -49 -18 -110
-24 -135 -6 -25 -18 -88 -27 -140 -24 -144 -76 -410 -105 -540 -10 -47 -21
-103 -25 -125 -3 -22 -14 -69 -24 -105 -10 -36 -21 -89 -25 -119 -3 -30 -11
-63 -16 -73 -6 -10 -17 -56 -24 -101 -8 -45 -19 -93 -25 -107 -5 -14 -16 -59
-24 -100 -13 -74 -30 -145 -66 -290 -45 -182 -52 -208 -64 -265 -7 -33 -20
-85 -29 -115 -20 -69 -44 -165 -62 -253 -8 -37 -19 -76 -25 -87 -5 -10 -16
-49 -24 -87 -8 -37 -21 -84 -29 -103 -8 -19 -18 -56 -21 -82 -4 -26 -11 -50
-16 -53 -5 -3 -14 -31 -20 -63 -6 -31 -20 -79 -30 -107 -10 -27 -32 -95 -49
-150 -18 -55 -38 -116 -45 -135 -8 -19 -29 -82 -47 -140 -18 -58 -36 -109 -40
-115 -4 -5 -14 -32 -22 -60 -8 -27 -22 -63 -31 -80 -9 -16 -16 -39 -16 -51 0
-11 -7 -29 -15 -40 -8 -10 -15 -29 -15 -41 l0 -22 33 19 c44 26 333 310 452
445 126 143 117 132 226 267 153 191 175 220 294 393 48 70 78 112 93 133 11
15 26 38 100 157 14 22 33 52 44 67 10 15 18 30 18 32 0 3 19 36 43 74 54 88
72 118 97 167 11 22 40 76 64 120 76 136 296 586 296 605 0 6 11 32 25 58 14
26 25 54 25 62 0 8 9 29 20 45 11 17 20 36 20 44 0 8 9 33 19 55 11 23 34 79
51 126 17 47 38 99 45 115 16 34 47 122 74 210 10 33 24 76 31 95 7 19 20 58
30 85 10 28 29 88 43 135 14 47 33 108 42 135 9 28 25 84 35 125 10 41 23 89
29 105 13 37 39 132 53 200 5 28 18 77 28 110 11 33 22 78 25 100 4 22 15 66
26 98 10 31 19 70 19 86 0 16 9 57 20 92 10 35 22 91 26 124 4 33 13 76 21 95
7 19 18 68 24 110 5 41 16 95 24 120 7 25 17 74 20 110 4 36 15 101 25 145 10
44 21 109 25 145 4 36 13 88 21 115 7 28 18 101 25 164 6 63 15 125 20 137 4
13 13 74 19 136 6 62 18 149 26 193 7 44 21 157 29 250 8 94 19 188 24 210 5
22 12 110 16 195 3 85 10 169 15 185 9 30 15 129 47 700 43 795 43 1556 0
2525 -23 512 -37 748 -47 810 -5 30 -12 145 -15 255 -3 110 -10 216 -15 235
-4 19 -13 107 -20 195 -24 349 -31 431 -41 475 -6 25 -11 108 -12 185 -1 125
1 145 21 189 12 27 22 54 22 60 0 6 16 34 35 61 20 28 56 80 80 117 70 105
129 156 252 219 29 15 67 31 85 34 18 4 49 16 68 26 19 11 43 19 53 19 10 0
32 7 50 17 18 9 52 22 77 29 70 21 194 65 205 74 6 4 26 11 45 15 19 4 45 13
57 21 11 7 43 19 70 25 26 7 57 18 68 24 11 7 42 18 68 24 27 7 59 18 70 25
12 8 38 17 57 21 19 4 51 16 70 26 19 11 44 19 55 19 11 0 34 7 50 16 17 9 50
22 75 30 25 7 77 25 115 39 99 38 202 74 260 92 28 9 59 21 70 28 11 7 42 18
69 24 27 7 58 19 70 27 11 7 30 14 41 14 11 0 43 11 70 25 28 13 58 25 68 25
11 0 33 7 50 15 30 14 78 31 207 75 30 10 87 30 125 45 39 15 95 34 125 42 30
8 60 19 66 24 9 8 33 16 179 64 28 9 61 22 75 29 14 7 47 19 75 25 27 7 55 17
61 22 7 5 34 16 60 24 62 17 163 53 189 66 11 5 43 16 70 24 64 18 164 53 190
66 11 5 43 16 70 24 28 8 88 28 135 45 47 17 105 37 130 45 25 8 83 28 130 46
47 17 110 38 140 46 30 8 60 19 67 25 7 5 36 16 65 23 56 14 170 54 203 72 11
6 37 14 59 17 21 4 55 16 75 27 20 10 46 19 59 19 12 0 39 8 60 19 20 10 54
21 76 25 21 4 55 16 75 27 20 10 47 19 61 19 14 0 41 8 60 19 19 10 53 21 75
25 21 4 55 16 75 25 19 10 53 22 75 26 22 4 45 11 52 17 7 5 43 18 80 28 37
10 82 22 98 28 51 19 127 43 184 59 30 8 64 21 75 28 12 7 39 16 61 19 22 4
63 15 90 25 83 30 147 51 200 66 47 13 71 20 190 60 28 9 73 23 100 30 28 8
70 21 95 29 69 24 139 45 210 65 36 10 79 23 95 29 17 6 71 23 120 38 50 14
125 37 167 50 43 13 85 24 93 24 9 0 29 7 46 15 16 9 55 21 87 26 31 6 62 15
67 19 6 5 33 14 60 19 28 6 79 20 115 30 36 11 103 31 150 44 81 24 124 36
305 87 44 12 102 27 130 32 27 5 62 16 77 24 15 8 37 14 49 14 23 0 157 34
279 71 36 11 90 24 120 29 30 5 75 15 100 23 25 8 68 20 95 25 28 6 100 23
160 37 61 14 135 31 165 36 30 6 89 19 130 30 77 19 193 44 290 61 30 5 96 18
145 29 50 10 128 24 175 30 47 6 93 15 102 20 9 5 63 14 120 20 57 6 126 17
153 24 28 8 100 19 160 25 61 6 128 16 150 22 22 5 105 16 185 23 80 8 199 20
265 28 66 9 215 20 330 27 116 6 226 15 245 20 55 14 653 21 875 11 269 -12
700 -47 805 -65 47 -9 121 -18 165 -21 96 -8 265 -47 320 -75 22 -11 44 -20
50 -20 14 0 103 -86 131 -125 11 -17 34 -59 50 -95 27 -61 29 -72 29 -195 -1
-116 -4 -139 -29 -210 -15 -44 -34 -87 -42 -96 -8 -8 -14 -20 -14 -26 0 -14
-94 -132 -128 -161 -77 -66 -195 -129 -260 -137 -26 -3 -63 -9 -82 -12 -19 -3
-44 -6 -55 -5 -59 1 -259 25 -320 37 -38 8 -171 22 -295 30 -124 9 -247 21
-275 26 -31 6 -205 9 -450 6 -413 -4 -864 -30 -1045 -61 -47 -8 -125 -18 -175
-21 -49 -4 -119 -13 -155 -21 -36 -7 -110 -18 -165 -24 -54 -6 -124 -17 -155
-25 -30 -7 -94 -18 -142 -24 -49 -6 -96 -14 -105 -20 -10 -5 -60 -14 -110 -20
-51 -6 -105 -16 -119 -21 -14 -6 -63 -17 -108 -24 -44 -8 -110 -21 -146 -30
-138 -33 -208 -49 -280 -62 -41 -8 -91 -20 -110 -28 -19 -7 -57 -17 -83 -20
-26 -4 -73 -16 -104 -27 -31 -10 -67 -19 -79 -19 -13 0 -45 -7 -71 -16 -26
-10 -75 -23 -108 -30 -33 -7 -78 -19 -100 -28 -22 -8 -52 -15 -67 -16 -15 0
-49 -8 -75 -19 -26 -10 -66 -21 -88 -25 -22 -4 -67 -15 -100 -26 -157 -49
-231 -70 -245 -70 -8 0 -42 -9 -75 -20 -33 -10 -100 -31 -150 -45 -49 -14
-110 -33 -135 -41 -25 -9 -70 -22 -100 -29 -30 -8 -76 -21 -102 -29 -27 -9
-69 -23 -95 -32 -27 -8 -73 -21 -103 -28 -30 -7 -66 -18 -79 -26 -14 -7 -50
-18 -80 -25 -53 -13 -119 -33 -186 -57 -16 -6 -59 -19 -95 -29 -71 -19 -148
-44 -195 -61 -16 -6 -61 -18 -98 -28 -37 -10 -74 -23 -82 -30 -7 -6 -35 -15
-62 -20 -45 -8 -113 -29 -228 -70 -27 -10 -142 -47 -255 -83 -113 -36 -227
-73 -255 -82 -27 -9 -72 -23 -100 -31 -27 -8 -72 -23 -100 -33 -80 -30 -116
-42 -184 -62 -35 -10 -68 -22 -75 -28 -6 -5 -37 -14 -68 -21 -32 -6 -60 -15
-63 -20 -3 -4 -29 -14 -57 -21 -29 -7 -71 -20 -93 -30 -22 -10 -48 -19 -58
-19 -10 0 -37 -8 -60 -19 -23 -10 -58 -22 -77 -26 -19 -4 -52 -16 -72 -26 -21
-11 -45 -19 -55 -19 -10 0 -31 -7 -48 -16 -16 -9 -52 -22 -80 -30 -58 -15
-171 -52 -200 -65 -25 -11 -120 -44 -200 -70 -119 -37 -208 -69 -219 -78 -6
-5 -29 -13 -51 -17 -22 -4 -56 -15 -75 -25 -19 -11 -44 -19 -55 -19 -11 0 -36
-9 -56 -19 -20 -11 -54 -23 -75 -27 -22 -4 -55 -15 -74 -25 -19 -11 -44 -19
-55 -19 -11 0 -33 -7 -50 -16 -16 -9 -50 -22 -75 -30 -25 -7 -83 -27 -130 -44
-47 -17 -110 -38 -140 -46 -30 -9 -60 -20 -67 -26 -7 -5 -34 -16 -60 -23 -61
-18 -159 -52 -198 -69 -16 -8 -46 -17 -65 -21 -19 -4 -40 -11 -46 -16 -10 -8
-105 -43 -204 -74 -90 -28 -166 -56 -190 -69 -14 -7 -47 -19 -75 -25 -27 -7
-55 -17 -61 -22 -7 -5 -34 -16 -60 -24 -57 -16 -160 -52 -189 -65 -23 -11
-117 -44 -190 -67 -27 -9 -59 -21 -70 -28 -11 -7 -37 -16 -59 -20 -21 -3 -55
-15 -75 -26 -20 -10 -44 -19 -54 -19 -10 0 -28 -5 -40 -12 -20 -10 -181 -69
-312 -114 -27 -9 -70 -25 -95 -34 -50 -19 -92 -34 -160 -58 -25 -8 -58 -20
-73 -25 -54 -19 -60 -42 -48 -179 6 -68 15 -157 20 -198 6 -41 15 -167 21
-280 6 -113 15 -250 20 -305 6 -55 14 -224 20 -375 5 -151 14 -309 20 -350 20
-148 34 -758 34 -1520 0 -749 -15 -1416 -35 -1467 -4 -12 -11 -122 -14 -245
-3 -123 -10 -241 -15 -263 -5 -22 -17 -137 -25 -255 -9 -118 -22 -255 -30
-305 -8 -49 -17 -126 -20 -170 -3 -44 -15 -141 -25 -215 -19 -131 -35 -251
-65 -473 -8 -60 -21 -141 -29 -180 -9 -40 -20 -109 -26 -155 -5 -45 -14 -90
-19 -100 -5 -9 -14 -59 -20 -109 -6 -51 -16 -104 -21 -118 -5 -14 -16 -66 -25
-117 -8 -51 -21 -111 -30 -133 -8 -22 -14 -56 -15 -75 0 -20 -7 -60 -16 -90
-14 -50 -33 -130 -64 -265 -22 -97 -61 -251 -81 -315 -18 -60 -28 -98 -59
-220 -13 -50 -56 -198 -72 -245 -6 -16 -18 -57 -28 -90 -10 -33 -23 -73 -29
-90 -19 -55 -43 -129 -58 -185 -8 -30 -19 -60 -25 -67 -5 -7 -16 -34 -23 -60
-13 -44 -46 -139 -95 -271 -11 -28 -29 -76 -39 -105 -10 -28 -26 -65 -35 -82
-9 -16 -16 -37 -16 -45 0 -8 -12 -37 -25 -65 -14 -27 -25 -56 -25 -62 0 -7 -9
-27 -20 -45 -11 -18 -20 -39 -20 -46 0 -8 -20 -56 -45 -109 -25 -52 -45 -99
-45 -105 0 -6 -9 -27 -19 -47 -11 -20 -34 -67 -51 -106 -18 -38 -46 -97 -63
-130 -16 -33 -36 -73 -44 -90 -8 -16 -19 -37 -24 -45 -5 -8 -12 -23 -16 -33
-9 -28 -145 -290 -176 -338 -8 -13 -31 -53 -51 -89 -58 -105 -85 -153 -106
-185 -11 -16 -32 -52 -47 -79 -16 -27 -33 -56 -38 -65 -17 -26 -69 -105 -78
-116 -4 -5 -43 -64 -87 -130 -43 -66 -86 -129 -95 -140 -8 -11 -50 -67 -93
-125 -42 -58 -82 -112 -89 -120 -82 -103 -208 -257 -217 -265 -6 -5 -24 -26
-40 -45 -95 -115 -366 -392 -531 -542 -167 -151 -411 -352 -520 -428 -20 -14
-60 -43 -88 -65 -63 -49 -68 -52 -291 -201 -71 -47 -83 -55 -116 -74 -19 -11
-55 -34 -80 -50 -53 -35 -103 -64 -146 -84 -17 -8 -36 -22 -43 -30 -7 -8 -26
-18 -42 -21 -16 -4 -31 -11 -35 -16 -5 -9 -13 -13 -164 -88 -47 -24 -92 -47
-100 -51 -32 -18 -137 -69 -185 -90 -27 -12 -72 -33 -100 -45 -27 -13 -90 -40
-139 -60 -49 -19 -94 -39 -100 -44 -6 -5 -27 -12 -46 -16 -19 -4 -46 -13 -60
-21 -25 -14 -114 -46 -180 -65 -19 -6 -57 -19 -85 -29 -71 -27 -142 -49 -201
-64 -28 -8 -60 -18 -72 -25 -11 -6 -49 -17 -84 -25 -35 -8 -81 -21 -103 -30
-22 -8 -51 -15 -65 -15 -14 -1 -54 -10 -90 -21 -113 -34 -451 -100 -518 -100
-50 0 -161 30 -217 59 -26 14 -58 21 -95 21 -30 0 -71 5 -90 10 -19 6 -82 17
-140 26 -58 8 -127 21 -155 29 -27 8 -75 21 -105 29 -113 29 -190 54 -202 64
-7 5 -29 13 -48 17 -19 4 -49 16 -66 26 -17 10 -38 19 -45 19 -17 0 -308 146
-330 166 -8 8 -19 14 -24 14 -5 0 -27 12 -49 27 -23 14 -59 38 -81 52 -22 14
-53 36 -70 48 -16 13 -39 30 -50 38 -11 8 -47 36 -81 62 -33 27 -76 59 -94 73
-19 14 -46 36 -60 50 -15 14 -51 47 -81 74 -87 78 -339 329 -404 402 -33 38
-69 77 -80 89 -27 27 -101 116 -161 195 -136 176 -187 247 -278 385 -54 83
-107 162 -117 177 -11 15 -19 31 -19 36 0 5 -7 15 -16 22 -8 8 -22 27 -30 44
-8 17 -28 54 -44 81 -16 28 -35 61 -42 75 -6 14 -17 32 -24 40 -24 30 -270
531 -324 660 -17 41 -37 87 -45 102 -8 14 -15 32 -15 40 0 7 -11 36 -25 63
-13 28 -25 57 -25 65 0 9 -9 33 -19 54 -11 21 -23 52 -26 69 -4 18 -15 50 -25
72 -21 47 -44 114 -70 205 -10 36 -26 83 -34 105 -8 22 -15 48 -16 58 0 11 -7
33 -15 50 -8 18 -21 61 -29 97 -23 100 -45 189 -66 260 -10 36 -21 88 -25 117
-3 29 -12 70 -19 91 -8 22 -19 77 -24 123 -6 46 -16 97 -22 113 -6 16 -15 77
-21 135 -5 58 -16 140 -24 181 -8 41 -19 147 -26 235 -6 88 -15 212 -21 275
-15 175 -22 840 -9 935 6 44 18 208 26 365 9 157 23 328 30 380 8 52 19 148
25 214 7 65 16 141 21 170 5 28 14 98 20 156 5 58 14 128 20 155 5 28 14 91
20 140 6 50 19 131 29 180 11 50 22 119 26 155 4 36 13 82 20 102 7 21 16 66
19 100 4 35 15 90 25 123 10 34 21 88 25 120 4 33 13 75 21 93 7 18 18 61 24
95 6 34 17 80 25 102 7 22 20 69 29 105 35 142 47 186 60 210 8 14 17 43 21
65 4 22 15 56 25 75 10 19 20 52 24 74 4 21 16 55 27 75 10 20 19 43 19 51 0
8 9 32 20 53 11 20 20 43 20 50 0 7 9 30 20 52 11 21 25 54 31 74 6 20 17 43
24 51 8 8 17 29 21 45 4 17 15 41 26 54 10 13 18 31 18 41 0 10 8 28 19 41 10
13 22 35 26 49 4 14 15 34 25 45 10 11 21 31 25 45 4 13 16 36 25 50 10 14 49
75 88 135 80 123 80 123 157 220 109 136 209 244 276 299 13 11 42 34 64 53
22 19 45 37 50 41 6 4 28 21 50 37 69 52 120 85 131 85 6 0 19 9 28 19 10 11
29 22 43 26 15 3 38 15 51 26 14 10 31 19 39 19 8 0 31 9 51 19 64 33 145 63
193 71 26 5 67 15 92 24 100 34 430 56 562 37 44 -6 115 -16 158 -22 43 -6 94
-17 112 -25 19 -8 47 -14 62 -14 16 0 44 -8 63 -19 19 -10 51 -22 70 -26 19
-4 51 -16 70 -26 19 -11 38 -19 43 -19 33 0 292 -147 382 -217 17 -13 40 -32
53 -41 76 -58 225 -199 318 -303 80 -89 234 -298 234 -317 0 -5 7 -15 15 -22
9 -7 22 -27 30 -44 9 -17 50 -72 93 -123 222 -263 286 -339 297 -348 6 -5 36
-39 66 -75 30 -36 59 -69 65 -75 5 -5 23 -28 39 -50 17 -22 50 -63 75 -90 144
-161 176 -198 185 -215 9 -16 104 -126 148 -173 10 -10 64 -73 120 -139 55
-67 110 -131 121 -143 58 -62 107 -116 156 -175 63 -76 213 -244 250 -281 14
-14 42 -45 64 -70 129 -148 236 -261 518 -547 130 -132 249 -260 265 -284 15
-24 40 -76 55 -117 24 -64 28 -90 28 -175 -1 -65 -6 -115 -16 -141 -9 -22 -20
-57 -25 -77 -12 -49 -70 -138 -129 -198 -50 -51 -96 -84 -176 -126 -69 -37
-69 -37 -194 -37 -122 -1 -127 0 -190 32 -36 19 -84 49 -107 67 -68 56 -366
361 -594 609 -64 69 -154 168 -287 314 -19 20 -40 46 -49 59 -20 28 -41 28
-47 -1 -3 -12 -7 -164 -10 -337 -3 -173 -10 -340 -16 -370 -6 -30 -16 -111
-24 -180 -8 -69 -19 -137 -24 -151 -6 -14 -13 -52 -17 -85 -3 -32 -15 -88 -25
-124 -10 -36 -22 -83 -25 -105 -4 -22 -15 -67 -25 -100 -10 -33 -22 -76 -25
-95 -4 -19 -11 -40 -16 -46 -5 -6 -16 -41 -24 -78 -9 -38 -22 -78 -29 -90 -8
-11 -17 -35 -21 -53 -3 -17 -15 -48 -26 -69 -10 -21 -19 -43 -19 -50 0 -29
-236 -526 -284 -598 -12 -17 -27 -44 -34 -59 -6 -15 -17 -33 -22 -40 -6 -7
-30 -41 -53 -76 -23 -35 -49 -74 -57 -86 -8 -12 -24 -35 -35 -51 -43 -63 -164
-204 -255 -295 -88 -89 -240 -219 -255 -219 -4 0 -21 -10 -38 -22 -149 -106
-387 -180 -582 -181 -103 -1 -269 21 -324 42 -28 12 -62 21 -74 21 -12 0 -44
12 -72 25 -27 14 -55 25 -62 25 -6 0 -40 16 -75 35 -34 19 -74 39 -88 45 -14
5 -30 13 -36 17 -171 114 -230 161 -363 294 -176 175 -274 308 -365 495 -16
32 -37 76 -47 96 -11 20 -19 43 -19 50 0 8 -9 31 -20 53 -11 21 -22 55 -26 74
-3 20 -14 63 -25 96 -46 149 -74 558 -49 725 5 30 15 102 23 160 8 58 21 128
30 155 9 28 20 68 26 90 22 90 40 137 117 300 91 192 279 397 449 491 36 20
67 40 71 45 3 5 12 9 21 9 9 0 35 9 58 20 39 19 79 32 190 62 22 5 114 10 205
10 129 0 175 -4 210 -17 25 -9 63 -21 85 -26 43 -11 218 -96 269 -131 200
-138 381 -322 537 -546 47 -67 48 -70 94 -147 16 -27 32 -52 36 -55 3 -3 14
-20 24 -39 22 -43 30 -31 45 62 6 37 15 78 20 93 6 15 17 79 25 143 8 64 20
134 25 156 30 114 27 760 -4 929 -9 44 -18 113 -22 151 -3 39 -14 104 -24 145
-10 41 -20 96 -24 121 -3 26 -14 75 -25 110 -10 35 -24 84 -31 109 -31 121
-43 158 -61 196 -10 22 -19 51 -19 65 0 13 -9 38 -20 54 -11 17 -20 37 -20 45
0 8 -11 38 -25 65 -13 28 -25 57 -25 65 0 8 -8 29 -19 46 -10 17 -22 41 -26
55 -12 36 -107 230 -130 264 -18 28 -52 68 -115 136 -14 15 -45 50 -70 79
-376 433 -382 437 -625 502 -22 6 -110 11 -195 11 -139 0 -163 -3 -238 -26
-81 -26 -110 -40 -197 -95 -42 -27 -119 -89 -171 -138 -26 -25 -78 -91 -199
-253 -14 -19 -25 -40 -25 -46 0 -7 -7 -18 -15 -25 -8 -7 -22 -26 -31 -44 -51
-96 -65 -122 -74 -136 -13 -20 -100 -209 -100 -218 0 -4 -12 -29 -25 -57 -14
-27 -25 -56 -25 -64 0 -8 -9 -32 -19 -55 -22 -48 -47 -118 -67 -196 -8 -30
-19 -64 -25 -75 -11 -23 -46 -147 -61 -220 -5 -27 -18 -78 -29 -112 -10 -34
-21 -82 -25 -105 -3 -24 -14 -74 -24 -113 -10 -38 -21 -97 -25 -130 -4 -33
-13 -79 -20 -101 -8 -23 -17 -77 -20 -120 -4 -44 -15 -119 -25 -169 -10 -49
-21 -130 -25 -180 -3 -49 -12 -124 -20 -165 -8 -41 -19 -147 -25 -235 -6 -88
-16 -198 -22 -245 -36 -303 -36 -1485 2 -1720 5 -36 14 -115 20 -177 5 -62 15
-132 21 -155 6 -24 15 -74 20 -113 5 -38 18 -108 28 -155 11 -47 24 -107 29
-135 11 -59 39 -169 60 -240 8 -27 20 -75 27 -105 14 -57 22 -84 81 -255 20
-55 41 -120 49 -145 14 -48 46 -129 76 -196 11 -23 19 -44 19 -48 0 -20 217
-470 276 -571 12 -22 32 -58 44 -80 37 -71 55 -100 135 -225 23 -36 56 -87 73
-115 73 -116 271 -378 384 -510 62 -72 321 -330 403 -402 77 -68 174 -141 250
-190 28 -18 57 -39 65 -47 9 -8 27 -20 40 -26 14 -6 48 -24 75 -40 46 -26 117
-61 220 -111 42 -20 98 -40 180 -66 28 -8 66 -22 85 -29 19 -8 67 -18 105 -24
39 -5 106 -16 150 -25 99 -19 298 -19 385 -1 36 8 92 17 125 21 87 9 275 66
380 114 22 11 61 28 86 40 26 12 68 36 95 53 116 74 130 83 144 95 8 7 49 40
90 74 86 69 213 199 272 278 22 29 48 61 57 70 9 9 24 28 34 41 51 74 115 167
134 199 12 20 31 52 43 71 12 19 32 53 45 75 27 45 182 355 214 427 12 27 30
67 40 90 11 24 23 55 26 70 4 15 13 32 21 39 8 6 14 21 14 33 0 11 11 44 25
71 13 28 25 56 25 64 0 8 9 32 19 55 11 23 52 142 91 266 107 335 119 376 157
525 8 33 21 76 29 95 8 19 19 61 24 92 5 31 14 66 20 78 6 11 15 46 21 77 6
32 18 85 29 118 10 33 23 83 28 110 16 77 41 175 57 225 8 25 19 76 25 114 6
38 15 77 21 88 6 10 17 58 25 105 9 48 20 95 25 105 6 10 16 56 24 101 8 45
21 107 30 137 8 30 15 66 15 80 1 14 7 43 15 65 9 22 20 72 25 110 5 39 19
104 29 145 11 41 25 102 31 135 37 213 59 325 65 334 3 6 10 46 15 90 5 43 15
101 23 127 9 27 21 94 27 149 7 55 17 111 22 125 5 14 14 63 19 110 5 47 16
114 24 150 15 66 29 154 65 425 11 83 25 164 30 180 5 17 12 66 15 110 3 44
15 132 25 195 10 63 21 151 25 195 3 44 12 116 20 160 8 44 19 139 25 210 6
72 17 175 25 230 8 55 17 152 20 215 3 63 12 162 20 220 8 58 21 220 30 360 8
140 20 282 26 315 5 33 14 184 20 335 5 151 13 356 18 455 41 780 41 3239 0
3975 -5 96 -14 315 -19 485 -5 171 -14 337 -20 370 -5 33 -17 188 -26 345 -8
157 -19 321 -24 365 -5 44 -14 157 -20 250 -6 94 -17 226 -26 295 -8 69 -21
204 -29 300 -8 96 -17 186 -20 200 -3 14 -9 88 -15 165 -6 77 -15 158 -20 180
-5 22 -14 90 -20 150 -7 61 -19 157 -27 215 -8 58 -19 150 -25 205 -5 55 -16
141 -25 190 -8 50 -19 140 -24 200 -5 61 -13 128 -18 150 -16 62 -20 91 -31
222 -6 66 -15 135 -20 153 -5 17 -14 86 -20 153 -6 67 -18 156 -25 197 -8 41
-20 128 -25 192 -6 64 -15 141 -21 170 -5 29 -16 116 -24 193 -7 77 -18 164
-24 193 -6 29 -15 115 -21 190 -14 184 -27 219 -95 272 -60 46 -109 103 -147
170 -26 46 -68 204 -68 256 0 39 47 271 60 295 6 10 15 45 21 76 6 32 17 67
24 79 7 12 16 39 20 60 4 21 16 62 27 89 19 47 20 62 14 220 -4 94 -12 217
-17 275 -5 58 -14 338 -20 622 -12 532 -1 1370 20 1558 5 47 15 164 21 260 6
96 16 202 21 235 5 33 15 106 23 162 8 56 21 112 29 125 8 13 17 38 21 56 3
19 15 45 26 59 11 14 20 30 20 35 0 13 83 114 117 141 56 46 110 70 193 87 81
17 89 16 174 -1 49 -11 98 -27 109 -36 29 -27 122 -24 168 5 20 12 44 22 53
22 9 0 38 11 64 25 26 14 53 25 60 25 8 0 28 7 45 15 18 8 52 21 77 29 40 13
116 41 220 82 19 7 43 13 53 14 11 0 31 7 45 15 30 16 119 48 198 70 29 9 65
22 80 30 16 8 38 15 49 15 11 0 38 9 61 19 23 10 65 24 94 30 30 6 58 16 64
21 6 4 38 15 71 24 33 8 83 22 110 31 65 21 149 47 260 80 50 14 110 33 135
41 25 9 70 22 100 29 30 7 73 20 95 29 22 8 51 16 65 16 14 0 43 8 65 16 22 9
58 20 80 25 22 5 69 18 105 28 94 29 176 51 250 67 36 8 79 21 95 28 17 8 51
17 76 20 25 4 69 16 98 26 28 11 62 20 75 20 13 0 43 7 67 16 24 9 71 22 104
30 75 16 174 42 240 62 28 8 84 23 125 33 119 28 162 39 215 56 28 9 86 24
130 34 85 18 129 30 235 60 69 19 145 39 250 65 36 9 91 25 123 35 31 10 66
19 77 19 10 0 43 9 72 19 29 10 67 22 83 25 30 6 123 33 220 63 28 9 75 22
105 29 30 7 75 19 100 28 92 31 146 48 200 60 31 7 69 20 85 28 17 9 48 18 70
22 22 4 63 15 90 26 28 10 91 30 140 45 50 15 111 36 137 46 26 11 54 19 63
19 9 0 37 9 63 19 50 20 110 41 207 71 84 27 153 50 205 71 49 19 121 43 185
63 22 6 54 19 72 29 18 9 40 17 50 17 10 0 35 8 55 19 21 10 58 24 84 30 25 7
56 18 67 25 12 8 38 17 57 21 19 4 51 16 70 26 19 11 43 19 53 19 11 0 31 7
45 15 15 8 52 23 82 34 113 39 146 52 170 65 14 7 39 16 55 20 17 4 48 15 70
26 22 10 74 30 115 45 41 15 92 35 112 46 20 10 43 19 50 19 7 0 36 12 63 25
28 14 55 25 61 25 11 0 86 31 170 71 23 10 47 19 55 19 8 0 28 9 44 20 17 11
37 20 46 20 9 0 37 11 63 25 26 14 52 25 58 25 6 0 29 9 52 20 23 10 75 33
116 50 41 17 92 39 112 50 20 11 44 20 53 20 9 0 33 9 53 20 46 24 149 70 157
70 3 0 32 12 63 26 31 14 77 35 102 46 25 11 62 29 82 39 20 11 43 19 50 19 7
0 38 12 68 26 30 14 78 37 106 50 28 13 56 24 63 24 7 0 29 9 49 19 79 40 150
71 163 71 8 0 23 6 34 14 11 7 36 18 56 25 20 6 53 20 74 31 22 11 46 20 55
20 8 0 29 9 45 20 17 11 37 20 45 20 8 0 36 11 62 25 26 14 53 25 60 25 7 0
30 9 51 20 20 11 43 20 49 20 7 0 36 11 63 25 28 13 57 25 65 25 8 0 32 9 53
20 20 11 42 20 49 20 6 0 30 9 52 19 45 21 135 54 206 75 25 7 61 20 80 29 32
14 100 38 225 81 28 10 73 24 100 31 28 7 64 20 80 29 17 9 38 16 48 16 10 0
34 7 55 16 20 9 66 24 102 34 36 10 94 27 130 38 36 11 94 27 130 36 36 10 94
26 130 36 127 37 186 52 257 65 39 8 93 21 120 29 26 7 75 19 108 25 33 5 132
24 220 41 88 16 218 37 289 45 71 8 145 19 165 25 46 12 458 40 610 41 64 1
127 5 141 10 14 4 79 6 145 3 66 -2 170 -7 230 -9z"/>
<path d="M23923 30985 c-19 -13 -21 -20 -13 -41 6 -14 10 -67 10 -117 0 -92
-15 -159 -60 -262 -10 -22 -21 -56 -25 -75 -4 -19 -16 -51 -26 -70 -11 -19
-19 -40 -19 -47 0 -12 -40 -119 -66 -178 -16 -36 -90 -224 -111 -280 -18 -51
-48 -119 -73 -167 -11 -20 -20 -43 -20 -51 0 -8 -11 -35 -25 -61 -14 -26 -25
-55 -25 -65 0 -10 -7 -24 -15 -31 -8 -7 -20 -31 -26 -54 -6 -22 -17 -48 -24
-56 -7 -8 -16 -26 -20 -40 -4 -14 -15 -39 -24 -55 -10 -17 -21 -44 -25 -60 -4
-15 -16 -40 -27 -53 -10 -14 -19 -31 -19 -39 0 -8 -9 -31 -20 -51 -11 -20 -34
-68 -51 -107 -79 -174 -321 -664 -496 -1002 -51 -98 -113 -218 -138 -268 -25
-49 -57 -108 -70 -130 -22 -37 -32 -57 -56 -110 -5 -11 -21 -40 -35 -65 -15
-25 -44 -79 -66 -120 -22 -41 -46 -86 -53 -100 -8 -14 -21 -38 -29 -55 -39
-77 -59 -116 -101 -190 -25 -44 -57 -102 -71 -130 -13 -27 -45 -86 -69 -130
-24 -44 -63 -117 -85 -162 -23 -45 -48 -87 -55 -93 -8 -6 -17 -25 -20 -41 -4
-16 -11 -31 -15 -34 -5 -3 -19 -25 -30 -48 -34 -69 -51 -101 -61 -117 -5 -8
-18 -33 -29 -55 -11 -22 -51 -98 -90 -170 -38 -71 -88 -166 -111 -210 -22 -44
-85 -165 -139 -270 -211 -407 -492 -984 -599 -1230 -12 -27 -30 -68 -40 -90
-10 -22 -27 -60 -38 -85 -11 -25 -32 -69 -47 -98 -14 -30 -26 -60 -26 -66 0
-7 -11 -34 -25 -60 -14 -26 -25 -52 -25 -58 0 -6 -9 -29 -19 -52 -39 -83 -71
-159 -71 -170 0 -6 -12 -33 -25 -61 -14 -27 -25 -56 -25 -63 0 -8 -7 -26 -15
-40 -20 -37 -67 -159 -76 -199 -10 -48 10 -55 95 -33 38 10 96 22 130 25 33 4
78 14 100 21 22 8 82 20 134 26 63 8 101 17 112 28 13 13 18 44 22 143 4 89
12 145 27 189 21 64 40 125 66 208 8 25 28 83 45 130 17 47 38 105 46 130 8
25 21 59 29 77 8 17 15 37 15 45 0 7 11 36 25 63 13 28 25 56 25 62 0 12 15
47 65 158 13 28 26 64 30 82 3 17 12 37 20 43 8 6 17 26 21 43 3 18 14 48 24
67 10 19 27 55 38 80 57 125 211 443 251 517 7 14 42 55 78 90 68 68 164 123
218 123 17 0 46 4 66 9 57 13 225 -13 289 -45 36 -18 58 -24 68 -18 8 5 25 45
38 89 13 44 31 100 39 125 9 25 22 68 30 95 7 28 28 88 45 135 17 47 38 105
46 130 18 60 57 166 78 212 9 21 16 44 16 53 0 8 9 32 20 52 11 21 20 44 20
52 0 8 9 33 19 55 10 23 25 59 32 81 6 22 18 49 25 60 6 11 15 34 19 52 3 17
15 48 26 69 10 21 19 45 19 54 0 8 9 29 20 45 11 17 20 37 20 45 0 8 11 38 25
65 13 28 25 56 25 63 0 7 10 37 23 65 13 29 34 77 46 107 43 104 74 175 91
215 10 22 21 51 25 64 4 14 16 38 26 55 11 17 19 37 19 45 0 8 9 32 20 55 10
23 33 75 50 116 17 41 38 89 45 105 41 88 65 145 65 151 0 4 9 25 20 48 10 23
33 75 50 116 17 41 40 93 50 116 11 23 20 47 20 54 0 7 8 27 19 44 10 17 22
42 26 56 9 31 40 103 65 152 11 20 20 43 20 50 0 8 9 31 20 53 11 21 25 54 31
74 7 20 18 45 25 56 8 11 14 27 14 36 0 9 11 37 25 63 14 26 25 52 25 59 0 7
12 35 25 62 14 28 25 56 25 63 0 8 7 26 15 40 18 34 63 146 77 192 5 19 14 40
18 45 4 6 13 28 20 50 6 22 20 58 30 80 10 22 23 56 30 75 6 19 23 64 37 100
13 36 32 88 40 115 9 28 22 59 28 70 7 11 16 36 20 55 4 19 13 49 21 65 8 17
20 53 28 80 14 49 66 207 111 335 12 36 32 97 43 135 12 39 28 93 37 120 9 28
23 79 31 115 8 36 21 79 29 97 20 41 19 89 -1 97 -9 3 -127 6 -263 6 -205 0
-250 -3 -268 -15z"/>
<path d="M25532 30938 c-7 -7 -12 -18 -12 -25 0 -7 -9 -39 -19 -70 -11 -32
-23 -78 -26 -103 -4 -25 -14 -61 -22 -80 -8 -19 -19 -61 -24 -93 -5 -32 -14
-66 -20 -75 -5 -9 -18 -48 -28 -87 -11 -38 -28 -99 -39 -135 -12 -36 -30 -96
-41 -135 -12 -38 -28 -84 -36 -102 -8 -17 -15 -39 -15 -48 0 -9 -9 -37 -19
-63 -23 -58 -58 -164 -72 -217 -6 -22 -16 -49 -23 -60 -7 -11 -18 -42 -25 -68
-6 -27 -18 -59 -25 -70 -8 -12 -17 -36 -21 -54 -3 -17 -15 -48 -26 -69 -10
-21 -19 -45 -19 -53 0 -7 -8 -32 -19 -55 -32 -71 -63 -150 -71 -184 -4 -18
-15 -43 -23 -55 -8 -12 -18 -38 -22 -56 -4 -19 -16 -48 -26 -65 -10 -17 -19
-38 -19 -46 0 -8 -12 -37 -25 -65 -14 -27 -25 -57 -25 -65 0 -9 -6 -24 -14
-35 -7 -11 -19 -38 -26 -60 -7 -22 -21 -56 -31 -75 -11 -19 -19 -42 -19 -50 0
-8 -9 -28 -20 -45 -11 -16 -20 -37 -20 -45 0 -14 -31 -84 -71 -162 -10 -20
-19 -43 -19 -50 0 -7 -11 -35 -25 -63 -13 -27 -25 -56 -25 -64 0 -7 -8 -28
-19 -45 -10 -17 -22 -42 -26 -56 -6 -25 -18 -51 -69 -160 -14 -30 -26 -65 -26
-78 0 -12 -9 -31 -20 -42 -22 -22 -27 -74 -9 -86 14 -8 29 14 29 43 0 12 8 30
19 40 10 10 24 35 30 55 7 20 18 41 26 48 7 6 16 23 20 38 4 15 13 34 20 42 7
8 18 34 24 56 6 23 17 47 25 53 8 7 17 24 21 39 4 15 12 34 20 42 7 8 18 32
24 52 7 20 18 41 26 48 7 6 16 23 20 37 3 15 15 39 25 53 10 14 22 38 25 53 4
14 13 31 21 38 8 6 14 16 14 22 0 11 22 59 130 282 67 137 123 255 202 425 22
47 50 108 63 135 13 28 43 91 66 140 22 50 54 117 70 151 16 33 29 68 29 76 0
9 6 21 14 27 8 6 19 31 25 55 6 24 17 49 26 56 8 7 15 20 15 29 0 8 11 38 24
66 13 27 38 84 56 125 17 41 38 89 45 105 8 17 28 66 46 110 18 44 39 89 46
100 7 11 13 26 13 35 0 8 12 38 25 65 14 28 25 57 25 65 0 8 9 29 20 45 11 17
20 37 20 45 0 8 11 38 25 65 13 28 25 57 25 65 0 8 12 38 25 65 14 28 25 56
25 63 0 7 9 30 20 52 11 22 20 53 20 69 0 37 -2 38 -170 45 -92 5 -129 3 -138
-6z"/>
<path d="M27257 30934 c-4 -4 -70 -11 -148 -15 -112 -6 -144 -11 -160 -25 -10
-9 -19 -23 -19 -30 0 -8 -8 -33 -19 -56 -10 -24 -24 -59 -31 -78 -7 -19 -23
-64 -37 -100 -14 -36 -34 -90 -44 -120 -11 -30 -24 -59 -29 -64 -6 -6 -10 -17
-10 -25 0 -9 -11 -38 -25 -66 -13 -27 -25 -57 -25 -65 0 -8 -11 -37 -25 -65
-13 -27 -25 -57 -25 -65 0 -8 -9 -28 -20 -45 -11 -16 -20 -36 -20 -43 0 -14
-50 -137 -75 -185 -8 -16 -15 -33 -15 -39 0 -6 -9 -29 -19 -52 -11 -23 -31
-66 -45 -97 -14 -31 -26 -60 -26 -65 0 -5 -11 -31 -24 -59 -13 -27 -36 -79
-51 -115 -15 -36 -35 -83 -45 -105 -11 -22 -29 -62 -40 -90 -12 -27 -33 -72
-45 -100 -13 -27 -33 -72 -45 -100 -24 -53 -56 -125 -97 -215 -14 -30 -37 -80
-50 -110 -14 -30 -29 -62 -34 -70 -5 -8 -12 -22 -15 -30 -3 -8 -16 -37 -29
-65 -65 -144 -87 -191 -96 -205 -5 -8 -12 -22 -15 -30 -7 -16 -44 -96 -93
-202 -18 -37 -36 -70 -40 -73 -5 -2 -12 -17 -16 -32 -3 -16 -56 -129 -117
-253 -164 -333 -524 -1061 -792 -1600 -130 -262 -236 -483 -236 -492 0 -9 -4
-20 -10 -23 -5 -3 -25 -41 -45 -83 -20 -42 -40 -84 -45 -92 -11 -18 -61 -120
-102 -210 -16 -36 -34 -72 -39 -80 -5 -8 -14 -26 -19 -40 -6 -14 -15 -32 -20
-40 -6 -8 -15 -26 -21 -40 -6 -14 -22 -48 -35 -76 -13 -28 -24 -54 -24 -58 0
-5 -8 -20 -19 -34 -10 -15 -22 -38 -26 -52 -8 -28 -60 -137 -74 -154 -5 -6
-12 -22 -16 -36 -4 -14 -26 -63 -47 -110 -22 -47 -53 -114 -70 -150 -16 -36
-37 -83 -48 -105 -10 -22 -30 -67 -45 -100 -38 -85 -62 -138 -85 -187 -35 -77
-80 -186 -80 -196 0 -5 -7 -15 -15 -22 -17 -14 -19 -47 -6 -69 8 -12 22 -13
96 -2 48 8 144 17 214 21 69 4 189 15 266 23 77 8 212 20 300 27 88 6 180 15
205 20 25 5 74 9 110 10 116 0 159 23 160 82 1 13 8 41 16 63 9 22 22 65 29
95 7 30 20 75 29 100 28 81 47 144 62 201 7 31 21 69 29 85 8 16 15 37 15 47
0 10 11 44 25 77 14 33 25 67 25 77 0 10 7 31 15 47 8 15 21 51 29 80 19 68
45 142 66 191 10 22 21 56 25 75 4 19 16 52 26 72 11 21 19 45 19 54 0 9 9 35
19 58 11 23 26 61 34 86 30 89 55 157 65 176 6 10 18 40 26 67 9 26 23 68 32
95 8 26 23 60 31 76 9 16 19 43 23 60 8 32 39 112 71 182 11 23 19 47 19 55 0
8 7 28 16 44 9 17 24 53 34 80 10 28 28 75 40 105 12 30 31 80 41 110 11 30
26 67 34 82 8 14 15 33 15 41 0 8 11 35 25 61 14 26 25 55 25 64 0 9 11 39 25
66 14 27 25 55 25 63 0 7 9 30 20 50 11 21 20 47 20 58 0 11 6 30 14 41 8 11
23 45 34 75 11 30 27 74 36 99 9 25 23 59 31 75 25 55 75 194 75 209 0 8 4 17
9 21 5 3 15 22 21 43 6 20 19 57 30 82 10 25 30 79 45 120 15 41 35 94 46 118
10 23 19 50 19 60 0 9 12 40 25 67 14 28 25 58 25 68 0 10 8 34 19 55 10 20
22 53 26 72 4 19 16 51 26 70 11 19 19 43 19 52 0 16 22 78 71 198 9 25 20 59
24 75 3 17 14 53 25 80 10 28 30 91 45 140 15 50 35 110 45 135 10 25 21 63
25 85 4 22 11 45 15 50 5 6 15 37 24 70 8 33 21 80 29 105 15 45 21 70 58 210
11 41 26 89 34 107 8 17 15 43 15 57 0 14 9 54 19 88 18 57 31 110 60 233 5
22 17 69 26 105 9 36 22 90 29 120 34 134 129 255 252 318 36 19 34 10 64 322
6 63 9 147 8 185 l-3 70 -85 3 c-47 1 -89 0 -93 -4z"/>
<path d="M22811 30889 c-54 -10 -73 -33 -66 -79 7 -41 46 -122 61 -127 6 -2
17 18 24 44 7 26 22 64 32 83 35 66 19 91 -51 79z"/>
<path d="M20407 30120 c-16 -5 -34 -13 -40 -18 -7 -5 -30 -15 -52 -22 -22 -7
-49 -19 -60 -25 -11 -7 -31 -16 -45 -20 -25 -6 -55 -19 -161 -69 -31 -14 -61
-26 -68 -26 -7 0 -29 -9 -49 -20 -62 -32 -150 -70 -165 -70 -8 0 -26 -9 -40
-20 -14 -11 -31 -20 -39 -20 -7 0 -26 -7 -43 -16 -16 -9 -53 -25 -82 -35 -28
-11 -63 -29 -77 -40 -24 -19 -26 -26 -26 -104 0 -58 -6 -99 -19 -132 -10 -26
-21 -64 -25 -84 -3 -19 -15 -53 -26 -74 -11 -22 -20 -50 -20 -63 0 -12 -8 -39
-19 -60 -10 -20 -24 -53 -29 -72 -6 -19 -25 -73 -42 -120 -17 -47 -37 -105
-44 -130 -8 -25 -21 -58 -30 -75 -9 -16 -16 -36 -16 -44 0 -8 -9 -33 -19 -55
-11 -23 -26 -59 -34 -81 -22 -59 -62 -163 -85 -220 -11 -27 -28 -70 -37 -95
-9 -25 -25 -63 -35 -85 -10 -22 -28 -65 -41 -95 -12 -30 -33 -78 -46 -107 -13
-28 -23 -57 -23 -64 0 -6 -9 -28 -19 -48 -11 -20 -32 -65 -46 -101 -15 -36
-38 -90 -52 -120 -15 -30 -34 -73 -43 -95 -17 -39 -47 -106 -88 -195 -11 -25
-24 -56 -27 -70 -4 -14 -13 -32 -20 -40 -7 -8 -18 -33 -25 -55 -7 -22 -21 -53
-31 -70 -11 -16 -19 -36 -19 -43 0 -7 -9 -26 -21 -41 -14 -19 -19 -36 -14 -50
9 -28 23 -27 31 3 3 13 17 33 30 45 13 11 24 29 24 39 0 11 8 26 18 35 9 9 32
44 51 79 18 35 46 83 61 108 16 25 48 79 71 120 23 41 45 77 49 80 3 3 25 39
49 80 23 41 55 95 71 120 16 25 34 55 39 66 5 12 28 48 50 80 23 33 41 64 41
70 0 6 7 17 16 25 9 7 23 28 32 46 21 41 98 165 163 263 27 41 56 89 64 106 7
17 21 36 29 44 9 7 16 17 16 22 0 5 8 21 19 36 10 15 27 40 37 56 10 16 26 39
34 51 8 13 46 72 83 131 88 139 152 235 172 255 8 9 15 19 15 24 0 5 20 38 43
74 24 36 51 77 60 91 9 14 31 45 48 70 18 25 65 95 106 155 40 61 92 137 116
170 24 33 47 67 51 75 3 8 31 49 60 90 30 41 81 113 113 160 32 47 66 93 76
102 9 10 17 22 17 27 0 5 12 23 26 40 21 26 24 34 14 46 -14 17 -14 17 -53 5z"/>
<path d="M21339 29473 c-8 -18 -19 -33 -25 -33 -7 0 -21 -15 -32 -32 -12 -18
-39 -58 -61 -88 -23 -30 -56 -77 -75 -105 -19 -27 -51 -72 -71 -100 -56 -78
-82 -115 -125 -180 -21 -33 -43 -64 -47 -70 -15 -18 -96 -138 -118 -174 -5 -9
-16 -23 -23 -31 -7 -8 -32 -44 -55 -79 -85 -129 -115 -175 -126 -190 -39 -56
-99 -147 -113 -173 -9 -16 -23 -37 -32 -47 -9 -10 -16 -21 -16 -26 0 -5 -8
-17 -17 -27 -16 -18 -31 -42 -83 -128 -11 -19 -28 -47 -38 -61 -47 -71 -59
-89 -100 -154 -25 -38 -53 -82 -63 -97 -11 -15 -19 -31 -19 -36 0 -5 -9 -17
-20 -27 -11 -10 -20 -23 -20 -29 0 -5 -10 -26 -23 -45 -36 -55 -137 -214 -172
-273 -11 -18 -29 -47 -40 -65 -29 -46 -107 -179 -126 -213 -9 -17 -22 -37 -29
-45 -7 -8 -20 -28 -29 -44 -15 -27 -28 -49 -84 -143 -12 -20 -44 -76 -72 -124
-27 -48 -59 -102 -70 -120 -11 -18 -72 -124 -135 -234 -63 -111 -127 -222
-142 -248 -15 -26 -35 -60 -43 -77 -9 -16 -29 -52 -45 -80 -15 -27 -35 -63
-44 -80 -9 -16 -29 -52 -45 -80 -16 -27 -46 -81 -66 -120 -21 -38 -50 -92 -66
-120 -16 -27 -38 -68 -49 -90 -11 -22 -33 -62 -49 -90 -16 -27 -34 -61 -40
-75 -6 -14 -15 -32 -21 -40 -13 -20 -43 -76 -64 -120 -10 -19 -21 -42 -26 -50
-5 -8 -27 -51 -50 -95 -23 -44 -64 -120 -90 -170 -26 -49 -100 -193 -164 -320
-64 -126 -141 -277 -171 -335 -61 -119 -314 -636 -352 -720 -14 -30 -29 -62
-34 -70 -8 -15 -34 -68 -124 -255 -24 -49 -46 -101 -50 -115 -4 -14 -16 -36
-26 -49 -11 -13 -19 -30 -19 -37 0 -7 -11 -34 -25 -60 -14 -26 -25 -53 -25
-59 0 -7 -6 -18 -14 -24 -8 -7 -17 -24 -20 -39 -4 -15 -27 -68 -52 -118 -52
-106 -51 -129 5 -119 41 8 145 40 213 67 26 10 55 18 65 18 10 1 36 8 58 16
22 9 72 24 110 34 39 10 93 26 120 35 142 45 173 54 210 60 21 4 51 13 65 20
14 7 44 16 65 20 22 4 65 15 95 25 53 18 124 37 240 64 30 7 78 20 105 29 47
15 121 35 225 58 38 9 116 29 220 59 22 6 27 16 37 71 14 76 34 139 108 334
14 39 27 84 28 100 2 30 1 30 -43 27 -230 -14 -289 -1 -436 99 -95 64 -195
225 -214 344 -20 120 -6 279 30 350 11 21 20 46 20 55 0 8 9 26 20 40 11 14
20 30 20 36 0 6 9 22 19 36 11 13 23 36 26 51 4 14 13 31 20 37 8 7 19 28 26
48 7 20 20 48 30 61 11 13 19 31 19 39 0 9 6 23 14 31 8 9 43 70 77 136 34 66
75 143 90 170 16 28 34 61 41 75 7 14 63 116 125 227 62 112 113 206 113 210
0 3 6 14 14 22 8 9 31 48 51 86 20 39 48 88 61 110 13 22 34 60 47 85 45 84
68 125 93 165 13 22 33 58 45 80 28 54 189 336 219 385 5 8 33 58 61 110 29
52 58 102 65 110 7 8 15 27 19 42 4 15 13 32 21 39 8 6 23 30 34 53 11 22 40
77 65 121 24 44 54 98 65 120 12 22 30 58 42 80 11 22 24 42 28 45 4 3 15 21
23 40 9 19 39 76 67 125 27 50 59 108 70 130 11 22 24 47 30 55 5 8 15 26 21
40 5 14 23 48 39 75 16 28 34 61 39 75 6 14 16 32 21 40 6 8 17 31 25 50 9 19
20 42 25 50 9 14 30 55 66 125 8 17 19 37 24 45 5 8 26 49 45 90 20 41 40 82
46 90 5 8 14 26 20 40 6 14 22 48 35 75 13 28 24 55 24 61 0 7 6 17 13 23 8 6
20 29 27 51 7 22 19 45 27 51 7 6 13 19 13 27 0 9 23 64 51 122 65 135 80 169
119 260 17 41 38 89 46 105 7 17 27 64 44 105 17 41 37 87 45 102 8 14 15 32
15 40 0 7 11 36 25 63 13 28 25 58 25 69 0 10 8 33 19 50 13 21 16 37 11 51
-8 18 -10 17 -21 -12z"/>
<path d="M18160 29171 c-25 -10 -62 -25 -82 -34 -21 -9 -43 -17 -50 -17 -7 0
-30 -9 -51 -20 -20 -11 -43 -20 -49 -20 -7 0 -35 -11 -63 -25 -27 -13 -57 -25
-65 -25 -8 0 -31 -8 -50 -19 -19 -10 -51 -22 -70 -26 -19 -4 -54 -21 -77 -37
l-43 -29 38 -47 c41 -52 69 -112 101 -213 16 -50 21 -91 21 -178 0 -111 -6
-144 -47 -256 -9 -22 -22 -58 -29 -80 -8 -22 -21 -53 -29 -70 -32 -69 -65
-144 -65 -150 0 -3 -11 -32 -26 -63 -14 -31 -33 -75 -43 -97 -20 -44 -48 -106
-108 -235 -56 -120 -335 -677 -393 -785 -27 -49 -67 -126 -90 -170 -23 -44
-55 -102 -71 -130 -16 -27 -38 -68 -49 -90 -11 -22 -31 -58 -45 -80 -13 -22
-32 -56 -41 -75 -9 -19 -20 -37 -24 -40 -4 -3 -16 -22 -26 -42 -11 -20 -39
-71 -64 -113 -69 -117 -97 -167 -115 -205 -9 -19 -19 -37 -23 -40 -7 -4 -25
-34 -118 -195 -36 -62 -66 -112 -134 -225 -11 -19 -32 -53 -45 -75 -13 -22
-33 -56 -45 -75 -45 -74 -66 -110 -108 -184 -24 -41 -47 -78 -53 -81 -5 -4
-16 -21 -24 -38 -12 -27 -68 -122 -105 -177 -5 -8 -19 -31 -31 -50 -11 -19
-31 -53 -44 -75 -13 -22 -34 -56 -45 -75 -38 -64 -65 -109 -100 -167 -19 -32
-38 -65 -43 -73 -4 -8 -21 -35 -37 -60 -17 -25 -37 -59 -45 -77 -14 -31 -55
-97 -74 -119 -6 -7 -17 -27 -26 -45 -8 -19 -38 -70 -65 -114 -27 -44 -57 -97
-66 -117 -9 -21 -20 -38 -24 -38 -4 0 -15 -17 -24 -37 -24 -53 -59 -118 -72
-134 -7 -8 -25 -39 -41 -69 -16 -30 -36 -66 -45 -80 -19 -30 -80 -139 -109
-195 -11 -22 -43 -80 -69 -130 -27 -49 -67 -127 -90 -172 -23 -45 -47 -87 -55
-93 -7 -6 -16 -23 -20 -38 -4 -15 -12 -34 -20 -42 -7 -8 -18 -32 -24 -52 -7
-20 -18 -41 -26 -48 -7 -6 -16 -23 -20 -37 -3 -15 -15 -39 -26 -54 -10 -15
-19 -34 -19 -42 0 -8 -8 -25 -19 -38 -10 -13 -22 -35 -26 -49 -4 -14 -16 -37
-26 -52 -11 -14 -19 -33 -19 -41 0 -8 -9 -25 -19 -39 -11 -13 -23 -38 -27 -54
-4 -16 -17 -47 -30 -70 -13 -22 -24 -48 -24 -56 0 -9 -7 -21 -15 -28 -16 -14
-21 -80 -5 -80 5 0 15 10 21 23 11 20 41 62 72 97 7 8 22 28 32 44 11 16 29
41 40 56 11 15 43 60 70 100 28 40 59 85 70 100 11 15 29 40 40 56 11 16 25
35 32 42 7 7 13 17 13 21 0 5 13 26 30 47 16 22 33 44 37 49 5 6 26 37 48 69
22 33 47 68 55 77 8 9 26 33 40 53 20 30 62 86 128 171 4 6 25 35 46 65 48 68
47 67 144 166 47 48 92 84 108 88 16 4 37 15 48 24 27 25 376 25 421 1 17 -10
61 -32 99 -50 120 -59 233 -204 265 -341 25 -106 8 -305 -32 -383 -8 -16 -20
-41 -26 -55 -19 -42 -56 -99 -88 -135 -17 -19 -49 -59 -70 -88 -21 -28 -43
-59 -50 -67 -39 -48 -112 -144 -133 -176 -14 -20 -32 -44 -40 -53 -22 -25 -55
-72 -69 -98 -9 -19 -8 -24 7 -32 14 -7 31 -4 68 14 27 14 57 25 66 25 10 0 32
9 50 20 18 11 41 20 50 20 34 0 68 43 78 97 5 29 16 63 24 75 8 13 17 34 21
48 3 14 15 43 25 65 10 22 30 67 45 100 14 33 34 76 44 95 10 19 22 49 25 67
4 17 14 37 21 43 8 7 17 27 21 46 3 18 12 39 20 45 8 7 19 31 25 55 6 24 17
49 25 55 8 6 14 16 14 21 0 12 48 122 107 248 48 103 67 143 108 235 15 33 31
68 37 79 15 29 -3 39 -79 42 -96 5 -136 12 -169 29 -16 8 -34 15 -41 15 -20 0
-130 94 -176 151 -94 117 -131 278 -107 477 7 59 17 118 23 132 5 14 20 52 32
85 13 33 33 85 45 115 12 30 31 79 42 109 11 30 26 64 34 75 8 11 14 29 14 39
0 10 9 35 20 55 27 51 70 149 70 159 0 5 8 24 19 43 10 19 22 46 26 60 4 14
18 50 32 80 32 70 60 131 132 295 28 63 56 122 104 225 24 52 48 106 52 120 4
14 16 37 26 52 11 14 19 32 19 40 0 7 8 27 19 43 10 17 23 47 30 67 7 20 19
42 27 48 7 7 14 19 14 28 0 8 23 63 51 121 29 58 80 165 114 236 35 72 95 196
134 276 39 80 71 153 71 162 0 9 4 18 9 22 9 5 63 113 110 220 12 28 27 57 32
65 5 8 13 24 18 35 26 60 32 71 40 85 5 8 24 47 41 85 17 39 40 88 50 110 10
22 23 51 29 65 6 14 15 32 21 40 5 8 21 42 35 75 14 33 35 78 45 100 10 22 34
74 53 115 56 123 97 211 128 277 16 34 29 68 29 75 0 7 9 27 20 43 11 17 20
37 20 46 0 9 9 28 20 42 11 14 20 32 20 40 0 8 11 35 25 61 14 26 25 52 25 58
0 6 11 34 24 62 13 28 34 76 47 106 12 30 33 78 46 107 13 28 23 58 23 65 0 7
9 28 20 46 11 18 20 38 20 45 0 6 11 35 25 62 13 28 25 59 25 71 0 11 7 29 15
40 8 10 20 37 26 59 6 22 20 59 31 83 19 44 21 104 3 107 -5 1 -30 -5 -55 -14z"/>
<path d="M16583 28599 c-23 -11 -46 -26 -51 -32 -4 -7 -14 -56 -20 -109 -7
-53 -23 -131 -37 -174 -14 -42 -25 -83 -25 -90 0 -8 -9 -31 -20 -51 -11 -21
-20 -47 -20 -58 0 -11 -8 -36 -19 -55 -10 -19 -22 -51 -26 -70 -4 -19 -16 -51
-26 -70 -19 -35 -26 -100 -11 -100 15 0 32 24 32 45 0 12 9 32 20 45 11 13 25
40 30 60 6 21 17 43 24 50 8 6 18 24 21 40 3 16 12 34 20 40 7 6 16 23 20 38
3 14 26 67 50 117 23 49 46 101 50 115 4 14 13 32 20 40 7 8 17 29 23 45 6 17
24 63 41 104 17 40 31 77 31 82 0 17 -85 9 -127 -12z"/>
<path d="M15070 28140 c-25 -10 -56 -19 -70 -20 -14 0 -43 -8 -65 -16 -22 -9
-72 -22 -112 -30 -39 -8 -84 -21 -100 -29 -15 -8 -40 -15 -55 -15 -15 0 -62
-11 -104 -25 -42 -14 -84 -25 -92 -25 -9 0 -45 -9 -81 -19 -64 -19 -112 -31
-271 -71 -113 -28 -157 -40 -245 -66 -44 -13 -90 -24 -101 -24 -12 0 -41 -7
-65 -16 -24 -8 -74 -21 -110 -29 -37 -8 -92 -26 -124 -39 l-56 -25 35 -47 c20
-26 36 -52 36 -58 0 -6 9 -28 20 -49 24 -44 50 -171 50 -242 0 -67 -22 -168
-55 -251 -29 -74 -185 -392 -265 -539 -27 -49 -58 -108 -69 -130 -11 -22 -25
-47 -31 -55 -5 -8 -15 -26 -21 -40 -5 -14 -20 -42 -32 -62 -23 -39 -202 -350
-227 -396 -8 -15 -31 -52 -50 -82 -19 -30 -40 -68 -48 -85 -7 -16 -16 -32 -21
-35 -4 -3 -24 -34 -45 -70 -20 -36 -50 -85 -66 -110 -16 -25 -46 -74 -66 -110
-21 -36 -45 -76 -54 -90 -10 -14 -31 -47 -48 -75 -17 -27 -36 -55 -41 -61 -6
-7 -17 -28 -25 -48 -8 -20 -19 -36 -25 -36 -5 0 -14 -12 -20 -27 -6 -16 -23
-47 -39 -70 -43 -66 -115 -180 -137 -217 -11 -18 -27 -44 -35 -57 -9 -13 -21
-33 -27 -44 -41 -69 -103 -168 -135 -215 -21 -30 -38 -60 -38 -66 0 -6 -7 -17
-16 -24 -8 -8 -22 -27 -30 -44 -8 -17 -27 -51 -44 -76 -16 -25 -33 -52 -36
-60 -4 -8 -17 -28 -28 -45 -12 -16 -28 -42 -36 -57 -14 -25 -35 -59 -83 -140
-26 -44 -102 -172 -137 -232 -51 -87 -245 -433 -273 -486 -36 -68 -177 -340
-205 -395 -24 -48 -145 -300 -177 -370 -12 -27 -34 -75 -49 -106 -14 -31 -26
-62 -26 -69 0 -7 -6 -21 -14 -29 -7 -9 -21 -40 -31 -69 -16 -50 -16 -61 5
-249 17 -159 25 -204 42 -232 l22 -34 12 29 c7 16 25 56 39 89 30 68 51 115
89 196 14 31 26 63 26 71 0 9 7 21 14 28 8 6 20 28 27 48 7 20 20 53 29 72 10
19 29 60 43 90 41 89 87 184 97 200 5 8 25 50 45 92 20 42 40 80 44 83 5 3 12
18 16 34 3 16 13 35 20 41 8 6 19 28 26 48 6 20 17 44 24 52 7 8 16 26 20 40
4 14 15 36 25 50 10 14 20 35 24 46 6 19 52 106 76 144 6 8 15 26 20 40 6 14
33 66 60 115 27 50 59 108 70 130 11 22 33 63 49 90 16 28 36 64 45 80 8 17
36 66 61 110 25 44 54 99 65 121 11 23 26 47 34 53 8 7 17 23 20 37 4 14 15
38 25 53 29 42 51 80 88 150 19 36 40 73 47 81 6 8 20 31 29 50 10 19 28 53
42 75 40 67 64 109 79 141 8 17 22 36 30 43 8 7 18 25 21 41 3 16 13 34 21 41
8 7 22 26 30 43 8 17 26 49 39 71 14 22 34 58 46 80 11 22 33 60 49 85 15 25
45 77 65 115 21 39 41 72 45 75 8 5 30 47 70 127 11 23 25 45 30 48 6 4 17 21
25 38 8 18 26 50 40 72 13 22 32 56 41 75 9 19 19 37 23 40 4 3 36 57 71 120
35 63 67 117 71 120 4 3 14 21 23 40 9 19 30 58 46 85 16 28 32 57 36 65 4 8
44 79 88 158 45 78 87 155 94 170 7 15 17 34 23 42 5 8 19 33 30 55 11 22 31
58 44 80 23 40 42 76 180 340 137 263 301 597 391 795 14 30 29 62 35 70 5 8
17 31 28 50 25 46 96 120 146 153 52 34 158 67 215 67 52 0 153 -29 226 -65
52 -26 118 -84 190 -167 48 -55 76 -61 94 -20 6 15 24 50 40 77 17 28 39 68
50 90 11 22 31 58 44 80 46 78 176 342 176 358 0 23 -42 21 -100 -3z"/>
<path d="M16283 27763 c-11 -34 -6 -66 10 -60 7 2 15 17 18 33 10 54 -12 75
-28 27z"/>
<path d="M16234 27656 c-3 -14 -3 -30 2 -37 11 -18 33 17 27 41 -7 27 -21 25
-29 -4z"/>
<path d="M24304 27585 c-7 -30 2 -59 16 -50 13 8 13 62 0 70 -5 3 -12 -6 -16
-20z"/>
<path d="M16194 27559 c-3 -6 -1 -16 5 -22 8 -8 11 -5 11 11 0 24 -5 28 -16
11z"/>
<path d="M27400 27474 c-6 -14 -10 -33 -10 -43 0 -9 -7 -26 -15 -37 -8 -10
-19 -37 -25 -59 -6 -22 -19 -60 -29 -85 -10 -25 -31 -79 -46 -120 -15 -41 -36
-93 -46 -116 -10 -23 -19 -46 -19 -53 0 -6 -7 -28 -16 -49 -18 -40 -45 -108
-74 -187 -10 -27 -25 -63 -34 -80 -9 -16 -16 -36 -16 -44 0 -8 -8 -32 -19 -55
-29 -64 -62 -147 -73 -186 -6 -19 -17 -44 -24 -55 -8 -11 -14 -26 -14 -35 0
-8 -11 -37 -25 -65 -13 -27 -25 -57 -25 -65 0 -8 -8 -31 -18 -50 -11 -19 -22
-48 -26 -65 -4 -16 -15 -48 -26 -70 -10 -22 -33 -78 -50 -125 -17 -47 -37 -96
-44 -110 -8 -14 -17 -41 -21 -60 -4 -19 -16 -51 -26 -70 -11 -19 -19 -42 -19
-50 0 -8 -12 -37 -25 -65 -14 -27 -25 -56 -25 -63 0 -6 -9 -29 -20 -49 -11
-21 -20 -43 -20 -50 0 -14 -42 -125 -71 -189 -11 -23 -19 -49 -19 -58 0 -9 -8
-33 -19 -54 -10 -20 -22 -53 -26 -72 -4 -19 -16 -51 -26 -70 -11 -19 -19 -44
-19 -55 0 -11 -12 -42 -25 -70 -14 -27 -25 -58 -25 -68 0 -11 -7 -33 -14 -50
-20 -44 -54 -141 -73 -206 -8 -30 -21 -64 -28 -75 -7 -12 -16 -38 -19 -58 -4
-21 -16 -57 -26 -80 -11 -24 -20 -54 -20 -68 0 -14 -10 -45 -21 -70 -29 -64
-36 -132 -15 -153 9 -9 22 -14 29 -12 7 3 125 9 262 14 138 5 257 12 266 16
13 5 17 28 21 124 4 83 10 126 21 147 17 29 43 101 76 209 18 58 23 72 61 180
35 100 61 181 76 239 8 33 19 65 24 71 6 7 15 39 21 71 6 32 17 71 25 85 7 15
17 46 20 70 4 24 15 62 25 84 10 22 19 52 19 67 0 15 9 51 20 80 10 29 24 84
30 122 6 38 15 77 20 86 5 10 14 51 20 91 6 41 17 94 25 119 7 25 17 65 20 90
8 49 54 156 89 203 50 70 118 120 194 142 28 9 63 26 76 38 l24 22 -18 176
c-10 97 -23 203 -29 235 -5 32 -12 111 -16 174 -3 64 -10 134 -15 155 -5 22
-17 135 -25 250 -9 116 -18 216 -20 223 -3 6 -16 12 -30 12 -18 0 -28 -7 -35
-26z"/>
<path d="M24260 27470 c0 -11 5 -20 10 -20 6 0 10 9 10 20 0 11 -4 20 -10 20
-5 0 -10 -9 -10 -20z"/>
<path d="M16150 27459 c0 -5 5 -7 10 -4 6 3 10 8 10 11 0 2 -4 4 -10 4 -5 0
-10 -5 -10 -11z"/>
<path d="M12495 27445 c-5 -2 -27 -6 -47 -9 -32 -6 -41 -14 -68 -64 -18 -31
-53 -82 -79 -112 -25 -30 -55 -66 -66 -79 -32 -39 -127 -145 -139 -156 -15
-12 -161 -195 -236 -293 -30 -40 -73 -96 -95 -125 -22 -29 -46 -61 -53 -72
-36 -57 -53 -82 -67 -100 -9 -11 -39 -56 -67 -100 -28 -44 -70 -109 -93 -145
-73 -113 -80 -124 -93 -150 -7 -14 -24 -43 -37 -65 -14 -22 -32 -56 -42 -75
-9 -19 -22 -42 -29 -50 -10 -13 -62 -108 -103 -189 -17 -33 -33 -62 -59 -111
-48 -88 -52 -95 -52 -106 0 -6 -6 -17 -14 -23 -7 -6 -19 -31 -26 -56 -7 -25
-19 -50 -26 -56 -8 -6 -14 -16 -14 -22 0 -5 -11 -33 -24 -61 -13 -28 -36 -78
-51 -111 -14 -33 -35 -77 -46 -97 -10 -20 -19 -42 -19 -49 0 -7 -11 -35 -24
-63 -32 -69 -63 -146 -72 -176 -3 -14 -12 -32 -19 -40 -7 -8 -16 -31 -20 -50
-4 -19 -16 -49 -26 -66 -10 -17 -19 -40 -19 -50 0 -11 -12 -41 -25 -69 -14
-27 -25 -58 -25 -68 0 -10 -8 -34 -19 -55 -10 -20 -22 -52 -26 -71 -4 -18 -16
-53 -27 -77 -20 -47 -21 -115 -1 -121 6 -2 21 15 32 39 12 24 32 61 46 83 13
22 31 54 40 70 9 17 31 55 50 85 19 30 38 62 41 70 4 8 25 41 46 74 21 32 45
73 53 90 8 17 28 51 45 76 16 25 34 55 39 67 6 12 25 44 43 70 36 52 115 178
136 219 7 13 32 53 55 88 23 36 59 93 80 128 35 57 47 76 89 143 68 105 97
153 103 173 3 12 10 22 15 22 6 0 57 79 80 125 5 10 68 108 100 155 9 14 33
54 54 90 20 36 50 85 66 110 16 25 36 59 45 75 8 17 29 50 45 75 16 25 37 59
45 75 9 17 29 50 45 75 17 25 39 63 50 85 12 22 32 58 45 80 39 64 63 107 85
152 11 23 25 45 30 48 6 4 17 21 26 38 25 53 45 91 55 107 5 8 19 33 30 55 11
22 33 63 48 90 16 28 54 102 85 165 32 63 62 122 67 130 42 71 65 132 55 144
-6 8 -15 12 -21 11z"/>
<path d="M16105 27370 c-3 -5 -1 -10 4 -10 6 0 11 5 11 10 0 6 -2 10 -4 10 -3
0 -8 -4 -11 -10z"/>
<path d="M16061 27284 c0 -11 3 -14 6 -6 3 7 2 16 -1 19 -3 4 -6 -2 -5 -13z"/>
<path d="M15972 27120 c0 -14 2 -19 5 -12 2 6 2 18 0 25 -3 6 -5 1 -5 -13z"/>
<path d="M15920 27045 c0 -8 5 -15 10 -15 6 0 10 7 10 15 0 8 -4 15 -10 15 -5
0 -10 -7 -10 -15z"/>
<path d="M18425 26970 c-7 -23 2 -43 16 -35 12 8 12 42 0 50 -5 3 -12 -4 -16
-15z"/>
<path d="M15875 26970 c-4 -6 -3 -16 3 -22 6 -6 12 -6 17 2 4 6 3 16 -3 22 -6
6 -12 6 -17 -2z"/>
<path d="M15830 26869 c0 -11 5 -17 10 -14 6 3 10 13 10 21 0 8 -4 14 -10 14
-5 0 -10 -9 -10 -21z"/>
<path d="M15788 26800 c-7 -24 -3 -38 8 -28 3 4 4 17 2 30 l-3 23 -7 -25z"/>
<path d="M10523 26785 c-46 -20 -65 -54 -61 -112 3 -43 5 -48 27 -48 25 0 33
11 89 118 20 36 20 38 2 47 -22 12 -18 12 -57 -5z"/>
<path d="M15740 26713 c0 -22 2 -25 10 -13 13 20 13 40 0 40 -5 0 -10 -12 -10
-27z"/>
<path d="M15694 26646 c-8 -22 3 -33 18 -18 9 9 9 15 0 24 -9 9 -13 7 -18 -6z"/>
<path d="M15644 26565 c-3 -14 -4 -28 -1 -31 10 -10 27 7 27 26 0 30 -19 33
-26 5z"/>
<path d="M14678 26570 c-9 -6 -67 -110 -128 -233 -61 -122 -118 -229 -126
-238 -8 -8 -14 -20 -14 -25 0 -5 -18 -43 -40 -84 -22 -41 -47 -89 -55 -107 -8
-17 -19 -34 -24 -37 -5 -4 -15 -23 -22 -44 -6 -20 -17 -44 -24 -52 -7 -8 -31
-49 -52 -90 -57 -109 -172 -318 -213 -390 -34 -58 -128 -228 -134 -240 -4 -8
-18 -33 -31 -55 -13 -22 -36 -60 -50 -85 -14 -25 -39 -67 -55 -95 -16 -27 -35
-59 -41 -70 -32 -61 -193 -340 -202 -350 -4 -5 -16 -25 -25 -42 -38 -73 -146
-259 -159 -274 -16 -19 -14 -21 72 -69 197 -112 295 -282 295 -514 0 -85 -24
-257 -44 -313 -7 -21 -17 -58 -20 -83 -4 -25 -16 -72 -27 -104 -19 -56 -19
-116 1 -116 11 0 20 26 20 55 0 14 8 32 18 42 10 10 33 50 51 88 17 39 36 77
41 85 10 17 32 59 147 280 45 85 92 175 106 200 15 25 40 72 56 105 16 34 41
78 55 98 15 21 26 40 26 42 0 4 111 204 147 263 12 20 32 55 43 77 22 43 48
88 83 146 12 21 45 76 72 124 28 47 60 103 72 123 12 20 32 53 43 72 12 19 32
53 46 75 13 22 31 54 39 70 9 17 29 50 45 75 16 25 47 77 70 115 22 39 59 99
80 134 22 34 40 65 40 67 0 3 20 35 45 73 25 38 45 73 45 78 0 6 7 16 16 23 8
8 22 27 30 44 8 17 27 51 44 76 16 25 34 54 39 65 5 11 34 61 65 110 31 50 66
109 77 132 11 23 24 45 30 49 6 3 15 16 20 27 5 12 23 42 39 67 17 25 37 59
45 76 8 17 31 58 52 90 22 33 45 70 52 84 25 49 49 90 61 105 15 18 42 65 69
121 10 23 24 45 30 48 11 7 16 66 5 66 -4 0 -25 -19 -48 -41 -51 -51 -92 -78
-176 -114 -53 -22 -84 -28 -170 -32 -58 -3 -123 0 -145 6 -66 17 -158 50 -174
64 -9 7 -29 19 -45 27 -16 8 -59 43 -96 77 -38 35 -70 63 -71 63 -2 0 -11 -5
-21 -10z"/>
<path d="M22732 24912 c-7 -5 -19 -38 -26 -75 -8 -36 -26 -92 -41 -124 -15
-32 -48 -101 -72 -153 -120 -253 -117 -246 -193 -430 -17 -41 -36 -86 -42
-100 -29 -65 -143 -373 -160 -432 -6 -21 -8 -44 -4 -53 7 -20 70 -20 126 0 23
8 62 15 85 15 23 0 47 6 52 13 5 6 22 46 37 87 15 41 34 89 41 105 45 101 75
175 75 188 0 8 6 20 14 26 8 7 20 34 26 61 6 27 18 54 25 60 8 6 17 26 21 43
3 18 15 48 25 67 10 19 33 69 49 110 17 41 37 89 45 105 8 17 24 53 35 80 40
91 123 271 148 321 24 50 12 64 -56 64 -32 0 -81 7 -108 15 -55 17 -83 18
-102 7z"/>
<path d="M27818 24234 c-3 -5 -11 -29 -18 -54 -6 -25 -17 -59 -25 -75 -44 -96
-33 -155 28 -155 69 0 91 42 68 130 -5 19 -12 56 -16 81 -6 48 -28 89 -37 73z"/>
<path d="M12097 21884 c-10 -10 -9 -64 2 -64 12 0 21 41 12 57 -4 7 -10 10
-14 7z"/>
<path d="M12047 21793 c-4 -3 -7 -24 -7 -46 0 -30 -4 -40 -20 -44 -13 -3 -24
-19 -30 -43 -6 -21 -16 -43 -24 -49 -8 -6 -19 -32 -25 -56 -6 -25 -15 -45 -20
-45 -5 0 -15 -17 -22 -37 -6 -21 -17 -49 -24 -63 -13 -24 -36 -75 -89 -192
-14 -31 -26 -60 -26 -65 0 -4 -12 -30 -25 -58 -14 -27 -25 -57 -25 -66 0 -9
-6 -22 -14 -28 -8 -7 -17 -24 -21 -39 -7 -29 -47 -93 -86 -138 -31 -36 -68
-62 -139 -99 -48 -25 -66 -29 -145 -29 -73 -1 -101 4 -150 24 -33 13 -69 32
-81 42 -11 10 -25 18 -31 18 -5 0 -34 22 -64 50 -76 69 -85 65 -81 -40 2 -47
10 -121 17 -165 8 -44 19 -136 25 -205 6 -69 17 -165 25 -215 8 -49 19 -155
25 -234 6 -79 12 -147 15 -150 2 -4 11 -99 20 -211 9 -113 18 -216 21 -229 l5
-24 30 31 c33 34 50 80 79 214 10 48 25 97 34 110 9 12 16 29 16 37 0 8 11 37
24 65 13 28 36 78 51 111 15 33 35 78 45 100 10 22 30 67 45 100 14 33 34 76
44 95 10 19 21 49 25 65 4 17 13 37 21 45 7 8 16 26 20 40 4 14 18 50 32 80
27 59 46 100 88 195 37 84 59 131 89 195 14 30 26 63 26 71 0 9 6 22 14 28 8
7 17 24 21 39 3 15 15 45 25 67 11 22 33 74 50 115 17 41 40 93 50 115 38 82
70 163 70 178 0 8 6 20 14 26 8 7 18 27 21 44 4 18 15 46 25 62 10 17 21 49
25 73 4 23 11 42 15 42 12 0 33 68 26 85 -6 16 -18 19 -29 8z"/>
<path d="M13111 21548 c-17 -29 -31 -59 -31 -65 0 -7 -9 -32 -19 -55 -11 -24
-33 -81 -50 -128 -18 -47 -38 -97 -46 -112 -8 -14 -15 -32 -15 -40 0 -7 -11
-34 -25 -60 -14 -26 -25 -52 -25 -59 0 -6 -9 -30 -20 -53 -10 -23 -33 -75 -50
-116 -17 -41 -40 -93 -50 -116 -11 -23 -20 -47 -20 -53 0 -7 -8 -29 -19 -49
-44 -89 -63 -132 -71 -165 -6 -30 -5 -36 11 -40 11 -3 21 -1 24 3 3 5 43 28
88 50 45 23 100 53 122 66 22 13 54 30 70 37 17 8 37 17 45 21 8 4 33 18 55
31 22 14 56 32 75 40 19 9 42 20 50 25 8 5 49 26 90 45 41 20 82 40 90 45 8 5
49 26 90 45 41 20 82 40 90 45 38 22 160 80 168 80 5 0 15 7 22 14 6 8 28 20
48 27 20 6 44 18 53 25 8 8 29 17 46 20 17 3 45 19 62 35 33 30 34 36 15 127
-6 31 -18 28 -93 -22 -197 -131 -483 -47 -634 187 -47 72 -76 133 -85 175 -4
19 -13 37 -19 39 -7 3 -26 -20 -42 -49z"/>
<path d="M22980 16540 c-19 -4 -55 -16 -80 -27 -70 -30 -99 -48 -209 -130 -65
-49 -111 -97 -187 -193 -119 -151 -124 -157 -124 -168 0 -6 -6 -17 -14 -24 -7
-8 -23 -32 -35 -54 -12 -21 -33 -57 -46 -79 -25 -41 -28 -47 -51 -100 -8 -16
-18 -37 -23 -45 -14 -21 -57 -120 -66 -150 -4 -14 -14 -34 -21 -45 -8 -11 -14
-26 -14 -35 0 -8 -11 -37 -25 -65 -13 -27 -25 -58 -25 -68 0 -10 -8 -39 -19
-65 -10 -26 -30 -85 -44 -132 -14 -47 -33 -107 -42 -135 -9 -27 -23 -81 -31
-120 -8 -38 -21 -88 -29 -110 -7 -22 -17 -62 -20 -90 -4 -27 -15 -79 -26 -114
-10 -35 -19 -77 -19 -93 0 -17 -9 -67 -19 -112 -11 -44 -22 -112 -26 -151 -4
-38 -13 -92 -20 -120 -8 -27 -19 -103 -25 -169 -6 -65 -16 -141 -21 -170 -6
-28 -14 -109 -19 -181 -5 -71 -14 -166 -20 -210 -61 -483 -64 -1552 -6 -1928
8 -51 18 -130 21 -177 4 -47 13 -107 20 -135 8 -27 19 -91 25 -141 5 -51 16
-109 24 -131 7 -21 17 -63 21 -93 4 -30 14 -71 21 -90 8 -19 20 -66 28 -105 8
-38 27 -110 41 -160 15 -49 33 -115 41 -145 8 -30 21 -66 28 -80 8 -14 17 -43
21 -65 4 -22 16 -54 26 -71 11 -17 19 -40 19 -50 0 -11 11 -41 25 -69 13 -27
25 -55 25 -61 0 -7 12 -38 26 -70 14 -33 33 -77 43 -99 41 -94 70 -156 145
-304 97 -190 121 -235 149 -283 12 -20 40 -68 61 -105 22 -37 47 -79 56 -93
10 -14 47 -70 83 -125 103 -156 174 -255 256 -356 26 -31 55 -67 66 -81 155
-196 428 -460 610 -593 11 -8 34 -25 50 -38 46 -36 142 -99 189 -125 22 -12
59 -34 81 -47 22 -14 51 -30 65 -37 14 -6 62 -28 108 -50 46 -21 97 -41 115
-45 18 -3 48 -14 67 -23 20 -10 58 -21 85 -25 28 -4 65 -14 84 -22 39 -15 167
-31 321 -40 109 -5 408 20 441 38 10 5 48 15 86 23 38 8 82 22 98 30 17 9 37
16 45 16 8 0 31 8 50 19 19 10 46 22 60 26 31 10 173 92 257 149 82 55 254
207 307 270 23 28 59 85 80 128 25 51 57 94 93 130 105 101 135 133 154 168
11 19 31 53 44 75 13 22 34 58 45 80 11 22 32 58 45 80 14 22 32 56 40 75 9
19 20 42 25 50 6 8 15 26 21 40 5 14 21 47 35 74 13 28 24 55 24 62 0 6 6 17
14 23 8 7 18 27 21 44 4 18 16 46 26 63 10 17 19 37 19 45 0 7 9 31 19 53 21
43 43 100 68 176 8 25 23 63 34 86 10 23 19 50 19 60 0 11 8 35 19 54 10 19
21 53 25 75 4 21 15 53 23 69 9 17 22 53 29 81 7 27 24 88 39 135 15 47 35
117 45 155 11 39 31 111 45 160 14 50 32 119 41 155 9 36 25 91 35 123 10 31
19 67 19 79 0 12 9 51 20 87 21 73 46 170 62 246 5 28 18 77 29 110 10 33 23
88 28 122 5 34 14 71 20 81 6 11 15 52 22 92 6 40 17 86 24 103 7 18 16 59 20
92 4 33 12 71 17 85 6 14 18 68 29 120 10 52 25 120 34 150 8 30 15 69 15 86
0 18 9 60 19 95 11 35 23 89 26 119 4 30 14 75 21 100 8 25 18 84 24 131 5 48
16 102 24 120 7 19 16 65 20 102 4 38 13 93 21 124 8 30 19 91 25 136 5 45 16
107 24 137 13 50 21 98 59 362 8 62 8 83 -3 105 l-13 28 -8 -25 c-4 -14 -7
-46 -8 -72 -1 -27 -7 -53 -16 -62 -9 -8 -23 -32 -31 -53 -45 -106 -169 -226
-299 -288 -55 -26 -70 -29 -170 -29 -84 0 -117 4 -140 16 -16 10 -41 22 -55
28 -51 23 -106 68 -194 159 -50 52 -158 165 -240 250 -82 86 -292 300 -465
476 -174 176 -339 347 -368 379 -85 96 -83 105 -82 -318 0 -201 -3 -376 -6
-388 -3 -13 -17 -115 -30 -228 -27 -224 -47 -344 -75 -460 -34 -136 -51 -204
-66 -269 -8 -35 -21 -75 -28 -90 -7 -14 -16 -47 -20 -73 -4 -26 -11 -50 -16
-53 -5 -3 -18 -34 -29 -68 -34 -105 -61 -179 -70 -191 -4 -6 -14 -29 -21 -51
-13 -41 -36 -91 -71 -157 -10 -20 -19 -43 -19 -51 0 -8 -8 -25 -19 -38 -10
-13 -22 -35 -26 -49 -8 -25 -117 -224 -159 -290 -70 -108 -123 -189 -143 -215
-13 -16 -29 -39 -38 -50 -95 -130 -297 -341 -400 -420 -48 -37 -170 -116 -205
-133 -14 -6 -32 -16 -40 -21 -34 -22 -130 -61 -149 -61 -11 0 -44 -10 -73 -22
-48 -20 -71 -22 -243 -22 -168 -1 -198 2 -260 21 -38 12 -86 25 -105 28 -19 4
-39 11 -45 15 -5 4 -28 13 -50 20 -43 13 -237 107 -295 143 -66 40 -215 155
-285 220 -70 64 -229 241 -249 276 -10 16 -45 70 -105 161 -26 38 -106 207
-134 280 -40 108 -66 201 -77 280 -6 41 -18 109 -26 150 -25 120 -22 425 6
592 12 73 28 160 36 193 8 33 21 85 28 115 7 30 21 69 30 85 9 17 16 37 16 45
0 8 11 38 25 65 13 28 25 58 25 67 0 9 5 20 10 23 6 4 20 25 32 48 35 70 105
172 147 216 23 24 41 46 41 51 0 7 56 55 186 159 6 5 29 19 50 30 21 12 46 25
54 30 30 19 129 61 143 61 8 0 34 9 58 19 49 21 213 46 299 45 79 -1 241 -29
278 -48 17 -9 39 -16 49 -16 10 0 29 -7 43 -14 14 -8 61 -32 105 -54 45 -22
87 -47 94 -56 7 -9 18 -16 23 -16 17 0 223 -179 284 -247 145 -163 234 -283
318 -428 36 -62 74 -101 87 -88 5 5 14 36 19 68 6 33 17 87 25 120 8 33 20
103 25 155 6 52 16 122 22 155 19 99 17 705 -4 840 -9 61 -20 143 -23 183 -3
40 -13 94 -20 120 -8 26 -19 82 -25 124 -6 43 -17 92 -24 110 -8 18 -17 55
-20 81 -4 26 -16 67 -26 90 -11 23 -20 54 -20 69 0 15 -9 47 -19 70 -11 24
-26 63 -34 88 -30 89 -55 155 -71 185 -9 17 -16 36 -16 43 0 7 -9 30 -20 50
-10 20 -31 64 -45 97 -14 33 -31 69 -37 80 -7 11 -18 34 -25 50 -8 17 -19 37
-24 45 -5 8 -15 26 -21 40 -21 43 -101 161 -128 191 -25 26 -97 110 -157 184
-32 38 -65 77 -73 87 -8 9 -28 33 -45 54 -50 61 -160 127 -310 185 -55 22 -77
24 -270 26 -115 1 -226 -2 -245 -7z"/>
<path d="M23286 12763 c-30 -8 -79 -63 -108 -123 -55 -115 -61 -135 -66 -232
-4 -85 -1 -106 22 -178 14 -45 26 -87 26 -94 0 -8 6 -19 14 -25 8 -7 17 -23
20 -36 13 -53 145 -227 216 -285 24 -19 48 -40 54 -45 31 -30 129 -74 189 -85
82 -17 172 -3 227 35 56 39 214 214 280 311 115 169 130 193 124 208 -3 9 -7
16 -8 16 -1 0 -42 -9 -92 -20 -112 -25 -152 -25 -246 -1 -129 33 -242 129
-328 280 -22 38 -123 172 -151 199 -56 55 -129 87 -173 75z"/>
<path d="M5324 9137 c-21 -12 -50 -45 -90 -102 -32 -47 -74 -192 -74 -257 0
-62 40 -233 64 -270 7 -13 17 -34 21 -48 4 -13 15 -36 25 -50 9 -14 30 -45 46
-70 35 -54 174 -193 229 -229 22 -14 67 -37 100 -50 139 -55 240 -33 354 79
36 36 77 79 90 95 13 17 47 57 74 90 60 72 177 249 177 269 0 24 -27 26 -86 6
-40 -14 -84 -20 -144 -20 -190 0 -341 100 -450 299 -9 15 -26 41 -38 57 -12
16 -30 39 -40 52 -94 127 -195 185 -258 149z"/>
</g>
</svg>
