<?xml version="1.0" standalone="no"?>
<!DOCTYPE svg PUBLIC "-//W3C//DTD SVG 20010904//EN"
 "http://www.w3.org/TR/2001/REC-SVG-20010904/DTD/svg10.dtd">
<svg version="1.0" xmlns="http://www.w3.org/2000/svg"
 width="434.000000pt" height="434.000000pt" viewBox="0 0 434.000000 434.000000"
 preserveAspectRatio="xMidYMid meet">
<metadata>
Created by potrace 1.11, written by Peter Selinger 2001-2013
</metadata>
<g transform="translate(0.000000,434.000000) scale(0.100000,-0.100000)"
fill="#000000" stroke="none">
<path d="M1248 3595 c-2 -1 -36 -6 -76 -9 -155 -15 -379 -91 -501 -171 -29
-19 -55 -35 -58 -35 -3 0 -24 -15 -47 -32 -223 -176 -367 -374 -448 -622 -20
-59 -56 -217 -56 -246 0 -8 -3 -58 -6 -110 -17 -312 103 -649 314 -883 100
-111 380 -388 405 -401 37 -19 84 -11 115 19 l25 25 2 272 c1 258 3 272 22
291 17 18 24 19 46 9 14 -6 25 -20 26 -29 1 -10 2 -151 3 -313 1 -162 6 -308
11 -325 17 -63 68 -121 135 -155 48 -24 144 -31 180 -13 14 7 30 13 36 13 17
0 80 63 106 105 l23 40 5 548 c5 528 6 549 24 563 25 18 41 18 60 -2 14 -13
16 -60 17 -352 0 -185 2 -345 4 -355 5 -28 51 -100 79 -124 49 -43 102 -63
166 -63 97 0 179 51 222 139 22 46 22 48 24 560 1 486 2 515 20 528 21 15 43
16 64 3 13 -8 15 -104 16 -762 1 -858 -2 -822 80 -898 58 -53 103 -72 175 -71
117 0 217 85 235 198 3 22 7 254 7 517 2 460 3 478 21 492 25 18 37 18 61 0
17 -12 18 -34 20 -337 1 -311 2 -326 22 -364 31 -58 62 -90 113 -118 93 -51
225 -27 294 55 53 62 64 108 64 286 0 213 0 209 17 226 18 18 55 13 72 -10 9
-12 12 -86 11 -263 -1 -267 5 -308 48 -336 26 -17 66 -15 100 3 43 23 442 440
490 512 44 66 114 199 135 255 4 11 14 38 22 60 50 135 76 392 56 545 -5 36
-12 83 -15 105 -8 61 -81 269 -119 341 -19 35 -49 85 -67 110 -18 26 -43 61
-54 78 -12 18 -55 66 -95 107 -205 209 -450 334 -739 377 -61 9 -334 8 -390
-2 -48 -8 -171 -39 -205 -52 -126 -46 -269 -122 -345 -184 -25 -20 -50 -40
-57 -43 -6 -4 -44 17 -85 48 -164 123 -371 208 -593 241 -38 5 -232 13 -237 9z
m207 -209 c94 -10 140 -21 235 -55 145 -53 292 -144 398 -247 47 -45 98 -37
172 26 29 25 62 52 74 60 12 8 27 20 34 27 8 8 28 21 45 30 18 9 34 19 37 22
3 4 21 14 40 23 126 57 157 70 170 74 8 2 39 10 68 18 105 29 254 36 396 19
118 -14 118 -14 215 -47 203 -71 402 -218 525 -391 75 -105 148 -265 172 -379
29 -138 37 -299 20 -396 -4 -19 -9 -48 -12 -65 -25 -134 -94 -291 -181 -413
-45 -64 -249 -282 -262 -282 -4 0 -8 67 -8 149 -1 167 -11 205 -75 270 -47 48
-85 64 -158 67 -105 5 -187 -43 -231 -135 -21 -42 -23 -63 -25 -245 -1 -109
-6 -202 -11 -206 -20 -19 -51 -20 -72 -3 -22 18 -22 21 -22 325 1 339 -3 368
-64 436 -81 91 -235 105 -336 30 -25 -19 -72 -81 -75 -98 0 -3 -4 -20 -8 -38
-4 -18 -8 -250 -8 -514 -1 -454 -2 -482 -20 -500 -10 -10 -27 -18 -37 -18 -48
0 -48 -11 -48 797 -1 734 -1 759 -21 803 -40 92 -142 154 -240 147 -101 -8
-169 -51 -210 -133 -18 -37 -19 -67 -18 -554 1 -459 -1 -517 -15 -533 -23 -25
-55 -29 -73 -8 -14 15 -16 65 -18 367 -3 343 -3 350 -26 394 -96 185 -348 188
-445 6 -21 -40 -22 -49 -23 -573 -1 -292 -4 -542 -8 -556 -8 -32 -52 -45 -75
-23 -13 14 -15 60 -16 328 -2 296 -3 316 -23 361 -72 161 -286 207 -400 85
-66 -69 -76 -108 -76 -295 0 -68 -2 -123 -6 -123 -3 0 -53 48 -112 108 -231
235 -331 458 -343 757 -11 300 104 587 319 798 45 43 111 98 147 122 124 83
303 157 414 172 22 3 57 8 78 12 48 8 150 6 242 -3z"/>
</g>
</svg>
